<svg width="1440" height="367" viewBox="0 0 1440 367" fill="none" xmlns="http://www.w3.org/2000/svg">
<rect width="1440" height="367" fill="#171717"/>
<path d="M444.409 137V125.364H445.818V130.545H452.023V125.364H453.432V137H452.023V131.795H445.818V137H444.409ZM459.716 137.182C458.929 137.182 458.237 136.994 457.643 136.619C457.052 136.244 456.59 135.72 456.256 135.045C455.927 134.371 455.762 133.583 455.762 132.682C455.762 131.773 455.927 130.979 456.256 130.301C456.59 129.623 457.052 129.097 457.643 128.722C458.237 128.347 458.929 128.159 459.716 128.159C460.504 128.159 461.194 128.347 461.785 128.722C462.379 129.097 462.841 129.623 463.171 130.301C463.504 130.979 463.671 131.773 463.671 132.682C463.671 133.583 463.504 134.371 463.171 135.045C462.841 135.72 462.379 136.244 461.785 136.619C461.194 136.994 460.504 137.182 459.716 137.182ZM459.716 135.977C460.315 135.977 460.807 135.824 461.194 135.517C461.58 135.21 461.866 134.807 462.052 134.307C462.237 133.807 462.33 133.265 462.33 132.682C462.33 132.098 462.237 131.555 462.052 131.051C461.866 130.547 461.58 130.14 461.194 129.83C460.807 129.519 460.315 129.364 459.716 129.364C459.118 129.364 458.626 129.519 458.239 129.83C457.853 130.14 457.567 130.547 457.381 131.051C457.196 131.555 457.103 132.098 457.103 132.682C457.103 133.265 457.196 133.807 457.381 134.307C457.567 134.807 457.853 135.21 458.239 135.517C458.626 135.824 459.118 135.977 459.716 135.977ZM465.818 137V128.273H467.113V129.636H467.227C467.409 129.17 467.702 128.809 468.108 128.551C468.513 128.29 469 128.159 469.568 128.159C470.144 128.159 470.623 128.29 471.005 128.551C471.392 128.809 471.693 129.17 471.909 129.636H472C472.223 129.186 472.558 128.828 473.005 128.562C473.452 128.294 473.988 128.159 474.613 128.159C475.394 128.159 476.032 128.403 476.528 128.892C477.024 129.377 477.272 130.133 477.272 131.159V137H475.932V131.159C475.932 130.515 475.755 130.055 475.403 129.778C475.051 129.502 474.636 129.364 474.159 129.364C473.545 129.364 473.07 129.549 472.733 129.92C472.396 130.288 472.227 130.754 472.227 131.318V137H470.863V131.023C470.863 130.527 470.702 130.127 470.38 129.824C470.058 129.517 469.644 129.364 469.136 129.364C468.788 129.364 468.462 129.456 468.159 129.642C467.86 129.828 467.617 130.085 467.432 130.415C467.25 130.741 467.159 131.117 467.159 131.545V137H465.818ZM483.483 137.182C482.642 137.182 481.917 136.996 481.307 136.625C480.701 136.25 480.233 135.727 479.904 135.057C479.578 134.383 479.415 133.598 479.415 132.705C479.415 131.811 479.578 131.023 479.904 130.341C480.233 129.655 480.692 129.121 481.279 128.739C481.87 128.352 482.559 128.159 483.347 128.159C483.801 128.159 484.25 128.235 484.693 128.386C485.137 128.538 485.54 128.784 485.904 129.125C486.267 129.462 486.557 129.909 486.773 130.466C486.989 131.023 487.097 131.708 487.097 132.523V133.091H480.37V131.932H485.733C485.733 131.439 485.635 131 485.438 130.614C485.245 130.227 484.968 129.922 484.608 129.699C484.252 129.475 483.832 129.364 483.347 129.364C482.813 129.364 482.351 129.496 481.961 129.761C481.574 130.023 481.277 130.364 481.068 130.784C480.86 131.205 480.756 131.655 480.756 132.136V132.909C480.756 133.568 480.87 134.127 481.097 134.585C481.328 135.04 481.648 135.386 482.057 135.625C482.466 135.86 482.942 135.977 483.483 135.977C483.836 135.977 484.154 135.928 484.438 135.83C484.726 135.727 484.974 135.576 485.182 135.375C485.39 135.17 485.551 134.917 485.665 134.614L486.961 134.977C486.824 135.417 486.595 135.803 486.273 136.136C485.951 136.466 485.553 136.723 485.08 136.909C484.606 137.091 484.074 137.182 483.483 137.182Z" fill="white"/>
<path d="M570.642 135H568.392L572.489 123.364H575.091L579.193 135H576.943L573.835 125.75H573.744L570.642 135ZM570.716 130.438H576.852V132.131H570.716V130.438ZM584.446 126.273V127.864H579.429V126.273H584.446ZM580.668 124.182H582.724V132.375C582.724 132.652 582.766 132.864 582.849 133.011C582.937 133.155 583.05 133.254 583.19 133.307C583.33 133.36 583.486 133.386 583.656 133.386C583.785 133.386 583.902 133.377 584.009 133.358C584.118 133.339 584.202 133.322 584.259 133.307L584.605 134.915C584.495 134.953 584.338 134.994 584.134 135.04C583.933 135.085 583.687 135.112 583.395 135.119C582.88 135.134 582.416 135.057 582.003 134.886C581.59 134.712 581.262 134.443 581.02 134.08C580.781 133.716 580.664 133.261 580.668 132.716V124.182ZM590.524 126.273V127.864H585.507V126.273H590.524ZM586.746 124.182H588.803V132.375C588.803 132.652 588.844 132.864 588.928 133.011C589.015 133.155 589.128 133.254 589.268 133.307C589.409 133.36 589.564 133.386 589.734 133.386C589.863 133.386 589.981 133.377 590.087 133.358C590.196 133.339 590.28 133.322 590.337 133.307L590.683 134.915C590.573 134.953 590.416 134.994 590.212 135.04C590.011 135.085 589.765 135.112 589.473 135.119C588.958 135.134 588.494 135.057 588.081 134.886C587.668 134.712 587.34 134.443 587.098 134.08C586.859 133.716 586.742 133.261 586.746 132.716V124.182ZM595.957 135.17C595.105 135.17 594.366 134.983 593.741 134.608C593.116 134.233 592.632 133.708 592.287 133.034C591.946 132.36 591.776 131.572 591.776 130.67C591.776 129.769 591.946 128.979 592.287 128.301C592.632 127.623 593.116 127.097 593.741 126.722C594.366 126.347 595.105 126.159 595.957 126.159C596.81 126.159 597.548 126.347 598.173 126.722C598.798 127.097 599.281 127.623 599.622 128.301C599.967 128.979 600.139 129.769 600.139 130.67C600.139 131.572 599.967 132.36 599.622 133.034C599.281 133.708 598.798 134.233 598.173 134.608C597.548 134.983 596.81 135.17 595.957 135.17ZM595.969 133.523C596.431 133.523 596.817 133.396 597.128 133.142C597.438 132.884 597.67 132.54 597.821 132.108C597.976 131.676 598.054 131.195 598.054 130.665C598.054 130.131 597.976 129.648 597.821 129.216C597.67 128.78 597.438 128.434 597.128 128.176C596.817 127.919 596.431 127.79 595.969 127.79C595.495 127.79 595.101 127.919 594.787 128.176C594.476 128.434 594.243 128.78 594.088 129.216C593.937 129.648 593.861 130.131 593.861 130.665C593.861 131.195 593.937 131.676 594.088 132.108C594.243 132.54 594.476 132.884 594.787 133.142C595.101 133.396 595.495 133.523 595.969 133.523ZM601.885 135V126.273H603.879V127.727H603.97C604.129 127.223 604.402 126.835 604.788 126.562C605.179 126.286 605.624 126.148 606.124 126.148C606.237 126.148 606.364 126.153 606.504 126.165C606.648 126.172 606.768 126.186 606.862 126.205V128.097C606.775 128.066 606.637 128.04 606.447 128.017C606.262 127.991 606.082 127.977 605.908 127.977C605.533 127.977 605.196 128.059 604.896 128.222C604.601 128.381 604.368 128.602 604.197 128.886C604.027 129.17 603.942 129.498 603.942 129.869V135H601.885ZM610.286 129.886V135H608.229V126.273H610.195V127.756H610.297C610.498 127.267 610.818 126.879 611.257 126.591C611.7 126.303 612.248 126.159 612.899 126.159C613.501 126.159 614.026 126.288 614.473 126.545C614.924 126.803 615.272 127.176 615.518 127.665C615.768 128.153 615.892 128.746 615.888 129.443V135H613.831V129.761C613.831 129.178 613.679 128.722 613.376 128.392C613.077 128.062 612.662 127.898 612.132 127.898C611.772 127.898 611.452 127.977 611.172 128.136C610.895 128.292 610.678 128.517 610.518 128.812C610.363 129.108 610.286 129.466 610.286 129.886ZM621.842 135.17C620.967 135.17 620.212 134.989 619.575 134.625C618.943 134.258 618.456 133.739 618.115 133.068C617.774 132.394 617.604 131.6 617.604 130.688C617.604 129.79 617.774 129.002 618.115 128.324C618.46 127.642 618.941 127.112 619.558 126.733C620.176 126.35 620.901 126.159 621.734 126.159C622.272 126.159 622.78 126.246 623.257 126.42C623.738 126.591 624.162 126.856 624.53 127.216C624.901 127.576 625.193 128.034 625.405 128.591C625.617 129.144 625.723 129.803 625.723 130.568V131.199H618.57V129.812H623.751C623.748 129.419 623.662 129.068 623.496 128.761C623.329 128.451 623.096 128.206 622.797 128.028C622.501 127.85 622.157 127.761 621.763 127.761C621.342 127.761 620.973 127.864 620.655 128.068C620.337 128.269 620.089 128.534 619.911 128.864C619.736 129.189 619.647 129.547 619.643 129.938V131.148C619.643 131.655 619.736 132.091 619.922 132.455C620.107 132.814 620.367 133.091 620.7 133.284C621.034 133.473 621.424 133.568 621.871 133.568C622.17 133.568 622.441 133.527 622.683 133.443C622.926 133.356 623.136 133.229 623.314 133.062C623.492 132.896 623.626 132.689 623.717 132.443L625.638 132.659C625.517 133.167 625.286 133.61 624.945 133.989C624.607 134.364 624.176 134.655 623.649 134.864C623.123 135.068 622.52 135.17 621.842 135.17ZM628.491 138.273C628.211 138.273 627.952 138.25 627.713 138.205C627.478 138.163 627.291 138.114 627.151 138.057L627.628 136.455C627.927 136.542 628.194 136.583 628.429 136.58C628.664 136.576 628.87 136.502 629.048 136.358C629.23 136.218 629.384 135.983 629.509 135.653L629.685 135.182L626.52 126.273H628.702L630.713 132.864H630.804L632.821 126.273H635.009L631.514 136.057C631.351 136.519 631.135 136.915 630.866 137.244C630.598 137.578 630.268 137.831 629.878 138.006C629.491 138.184 629.029 138.273 628.491 138.273ZM643.33 128.58L641.455 128.784C641.402 128.595 641.309 128.417 641.176 128.25C641.047 128.083 640.873 127.949 640.653 127.847C640.434 127.744 640.165 127.693 639.847 127.693C639.419 127.693 639.059 127.786 638.767 127.972C638.479 128.157 638.337 128.398 638.341 128.693C638.337 128.947 638.43 129.153 638.619 129.312C638.813 129.472 639.131 129.602 639.574 129.705L641.062 130.023C641.888 130.201 642.502 130.483 642.903 130.869C643.309 131.256 643.513 131.761 643.517 132.386C643.513 132.936 643.352 133.42 643.034 133.841C642.72 134.258 642.282 134.583 641.722 134.818C641.161 135.053 640.517 135.17 639.79 135.17C638.722 135.17 637.862 134.947 637.21 134.5C636.559 134.049 636.17 133.422 636.045 132.619L638.051 132.426C638.142 132.82 638.335 133.117 638.631 133.318C638.926 133.519 639.311 133.619 639.784 133.619C640.273 133.619 640.665 133.519 640.96 133.318C641.259 133.117 641.409 132.869 641.409 132.574C641.409 132.324 641.313 132.117 641.119 131.955C640.93 131.792 640.634 131.667 640.233 131.58L638.744 131.267C637.907 131.093 637.288 130.799 636.886 130.386C636.485 129.97 636.286 129.443 636.29 128.807C636.286 128.269 636.432 127.803 636.727 127.409C637.027 127.011 637.441 126.705 637.972 126.489C638.506 126.269 639.121 126.159 639.818 126.159C640.841 126.159 641.646 126.377 642.233 126.812C642.824 127.248 643.189 127.837 643.33 128.58Z" fill="white"/>
<path d="M725.011 136V124.364H729.602C730.485 124.364 731.237 124.532 731.858 124.869C732.479 125.203 732.953 125.667 733.278 126.261C733.608 126.852 733.773 127.534 733.773 128.307C733.773 129.08 733.606 129.761 733.273 130.352C732.939 130.943 732.456 131.403 731.824 131.733C731.195 132.062 730.434 132.227 729.54 132.227H726.614V130.256H729.142C729.616 130.256 730.006 130.174 730.312 130.011C730.623 129.845 730.854 129.616 731.006 129.324C731.161 129.028 731.239 128.689 731.239 128.307C731.239 127.92 731.161 127.583 731.006 127.295C730.854 127.004 730.623 126.778 730.312 126.619C730.002 126.456 729.608 126.375 729.131 126.375H727.472V136H725.011ZM735.425 136V127.273H737.772V128.795H737.863C738.022 128.254 738.289 127.845 738.664 127.568C739.039 127.288 739.471 127.148 739.959 127.148C740.081 127.148 740.211 127.155 740.351 127.17C740.492 127.186 740.615 127.206 740.721 127.233V129.381C740.607 129.347 740.45 129.316 740.249 129.29C740.048 129.263 739.865 129.25 739.698 129.25C739.342 129.25 739.024 129.328 738.743 129.483C738.467 129.634 738.247 129.847 738.084 130.119C737.925 130.392 737.846 130.706 737.846 131.062V136H735.425ZM744.311 136.165C743.754 136.165 743.258 136.068 742.822 135.875C742.387 135.678 742.042 135.388 741.788 135.006C741.538 134.619 741.413 134.138 741.413 133.562C741.413 133.078 741.502 132.67 741.68 132.341C741.858 132.011 742.101 131.746 742.407 131.545C742.714 131.345 743.063 131.193 743.453 131.091C743.847 130.989 744.26 130.917 744.691 130.875C745.199 130.822 745.608 130.773 745.919 130.727C746.229 130.678 746.455 130.606 746.595 130.511C746.735 130.417 746.805 130.277 746.805 130.091V130.057C746.805 129.697 746.691 129.419 746.464 129.222C746.241 129.025 745.923 128.926 745.51 128.926C745.074 128.926 744.727 129.023 744.47 129.216C744.212 129.405 744.042 129.644 743.959 129.932L741.72 129.75C741.834 129.22 742.057 128.761 742.39 128.375C742.724 127.985 743.154 127.686 743.68 127.477C744.21 127.265 744.824 127.159 745.521 127.159C746.006 127.159 746.47 127.216 746.913 127.33C747.36 127.443 747.756 127.619 748.101 127.858C748.449 128.097 748.724 128.403 748.924 128.778C749.125 129.15 749.226 129.595 749.226 130.114V136H746.93V134.79H746.862C746.722 135.062 746.534 135.303 746.299 135.511C746.065 135.716 745.782 135.877 745.453 135.994C745.123 136.108 744.743 136.165 744.311 136.165ZM745.004 134.494C745.36 134.494 745.674 134.424 745.947 134.284C746.22 134.14 746.434 133.947 746.589 133.705C746.745 133.462 746.822 133.187 746.822 132.881V131.955C746.746 132.004 746.642 132.049 746.51 132.091C746.381 132.129 746.235 132.165 746.072 132.199C745.909 132.229 745.746 132.258 745.584 132.284C745.421 132.307 745.273 132.328 745.14 132.347C744.856 132.388 744.608 132.455 744.396 132.545C744.184 132.636 744.019 132.759 743.902 132.915C743.784 133.066 743.726 133.256 743.726 133.483C743.726 133.812 743.845 134.064 744.084 134.239C744.326 134.409 744.633 134.494 745.004 134.494ZM755.147 136.17C754.253 136.17 753.484 135.981 752.84 135.602C752.2 135.22 751.707 134.689 751.362 134.011C751.022 133.333 750.851 132.553 750.851 131.67C750.851 130.777 751.023 129.992 751.368 129.318C751.717 128.64 752.211 128.112 752.851 127.733C753.491 127.35 754.253 127.159 755.135 127.159C755.897 127.159 756.563 127.297 757.135 127.574C757.707 127.85 758.16 128.239 758.493 128.739C758.827 129.239 759.01 129.826 759.044 130.5H756.76C756.696 130.064 756.525 129.714 756.249 129.449C755.976 129.18 755.618 129.045 755.175 129.045C754.8 129.045 754.472 129.148 754.192 129.352C753.916 129.553 753.7 129.847 753.544 130.233C753.389 130.619 753.311 131.087 753.311 131.636C753.311 132.193 753.387 132.667 753.539 133.057C753.694 133.447 753.912 133.744 754.192 133.949C754.472 134.153 754.8 134.256 755.175 134.256C755.452 134.256 755.7 134.199 755.919 134.085C756.143 133.972 756.327 133.807 756.47 133.591C756.618 133.371 756.715 133.108 756.76 132.801H759.044C759.006 133.468 758.825 134.055 758.499 134.562C758.177 135.066 757.732 135.46 757.164 135.744C756.595 136.028 755.923 136.17 755.147 136.17ZM765.336 127.273V129.091H760.08V127.273H765.336ZM761.274 125.182H763.694V133.318C763.694 133.542 763.728 133.716 763.796 133.841C763.864 133.962 763.959 134.047 764.08 134.097C764.205 134.146 764.349 134.17 764.512 134.17C764.626 134.17 764.739 134.161 764.853 134.142C764.967 134.119 765.054 134.102 765.114 134.091L765.495 135.892C765.374 135.93 765.204 135.973 764.984 136.023C764.764 136.076 764.497 136.108 764.183 136.119C763.599 136.142 763.088 136.064 762.649 135.886C762.213 135.708 761.874 135.432 761.632 135.057C761.389 134.682 761.27 134.208 761.274 133.636V125.182ZM767.013 136V127.273H769.433V136H767.013ZM768.229 126.148C767.869 126.148 767.56 126.028 767.303 125.79C767.049 125.547 766.922 125.258 766.922 124.92C766.922 124.587 767.049 124.301 767.303 124.062C767.56 123.82 767.869 123.699 768.229 123.699C768.589 123.699 768.895 123.82 769.149 124.062C769.407 124.301 769.536 124.587 769.536 124.92C769.536 125.258 769.407 125.547 769.149 125.79C768.895 126.028 768.589 126.148 768.229 126.148ZM775.415 136.17C774.521 136.17 773.752 135.981 773.109 135.602C772.468 135.22 771.976 134.689 771.631 134.011C771.29 133.333 771.12 132.553 771.12 131.67C771.12 130.777 771.292 129.992 771.637 129.318C771.985 128.64 772.48 128.112 773.12 127.733C773.76 127.35 774.521 127.159 775.404 127.159C776.165 127.159 776.832 127.297 777.404 127.574C777.976 127.85 778.429 128.239 778.762 128.739C779.095 129.239 779.279 129.826 779.313 130.5H777.029C776.965 130.064 776.794 129.714 776.518 129.449C776.245 129.18 775.887 129.045 775.444 129.045C775.069 129.045 774.741 129.148 774.461 129.352C774.184 129.553 773.968 129.847 773.813 130.233C773.658 130.619 773.58 131.087 773.58 131.636C773.58 132.193 773.656 132.667 773.807 133.057C773.963 133.447 774.18 133.744 774.461 133.949C774.741 134.153 775.069 134.256 775.444 134.256C775.72 134.256 775.968 134.199 776.188 134.085C776.412 133.972 776.595 133.807 776.739 133.591C776.887 133.371 776.984 133.108 777.029 132.801H779.313C779.275 133.468 779.093 134.055 778.768 134.562C778.446 135.066 778.001 135.46 777.432 135.744C776.864 136.028 776.192 136.17 775.415 136.17ZM784.94 136.17C784.042 136.17 783.27 135.989 782.622 135.625C781.978 135.258 781.482 134.739 781.133 134.068C780.785 133.394 780.611 132.597 780.611 131.676C780.611 130.778 780.785 129.991 781.133 129.312C781.482 128.634 781.972 128.106 782.605 127.727C783.241 127.348 783.987 127.159 784.843 127.159C785.419 127.159 785.955 127.252 786.451 127.438C786.951 127.619 787.387 127.894 787.758 128.261C788.133 128.629 788.425 129.091 788.633 129.648C788.842 130.201 788.946 130.848 788.946 131.591V132.256H781.576V130.756H786.667C786.667 130.407 786.592 130.098 786.44 129.83C786.289 129.561 786.078 129.35 785.809 129.199C785.544 129.044 785.236 128.966 784.883 128.966C784.516 128.966 784.19 129.051 783.906 129.222C783.626 129.388 783.406 129.614 783.247 129.898C783.088 130.178 783.006 130.491 783.003 130.835V132.261C783.003 132.693 783.082 133.066 783.241 133.381C783.404 133.695 783.633 133.938 783.929 134.108C784.224 134.278 784.575 134.364 784.98 134.364C785.249 134.364 785.495 134.326 785.718 134.25C785.942 134.174 786.133 134.061 786.292 133.909C786.451 133.758 786.573 133.572 786.656 133.352L788.895 133.5C788.781 134.038 788.548 134.508 788.196 134.909C787.847 135.307 787.396 135.617 786.843 135.841C786.294 136.061 785.66 136.17 784.94 136.17ZM796.48 136H793.843L797.86 124.364H801.031L805.042 136H802.406L799.491 127.023H799.4L796.48 136ZM796.315 131.426H802.542V133.347H796.315V131.426ZM806.497 136V127.273H808.844V128.795H808.935C809.094 128.254 809.361 127.845 809.736 127.568C810.111 127.288 810.543 127.148 811.031 127.148C811.152 127.148 811.283 127.155 811.423 127.17C811.563 127.186 811.687 127.206 811.793 127.233V129.381C811.679 129.347 811.522 129.316 811.321 129.29C811.12 129.263 810.937 129.25 810.77 129.25C810.414 129.25 810.096 129.328 809.815 129.483C809.539 129.634 809.319 129.847 809.156 130.119C808.997 130.392 808.918 130.706 808.918 131.062V136H806.497ZM816.715 136.17C815.817 136.17 815.045 135.989 814.397 135.625C813.753 135.258 813.257 134.739 812.908 134.068C812.56 133.394 812.386 132.597 812.386 131.676C812.386 130.778 812.56 129.991 812.908 129.312C813.257 128.634 813.747 128.106 814.38 127.727C815.016 127.348 815.762 127.159 816.618 127.159C817.194 127.159 817.73 127.252 818.226 127.438C818.726 127.619 819.162 127.894 819.533 128.261C819.908 128.629 820.2 129.091 820.408 129.648C820.617 130.201 820.721 130.848 820.721 131.591V132.256H813.351V130.756H818.442C818.442 130.407 818.367 130.098 818.215 129.83C818.064 129.561 817.853 129.35 817.584 129.199C817.319 129.044 817.011 128.966 816.658 128.966C816.291 128.966 815.965 129.051 815.681 129.222C815.401 129.388 815.181 129.614 815.022 129.898C814.863 130.178 814.781 130.491 814.778 130.835V132.261C814.778 132.693 814.857 133.066 815.016 133.381C815.179 133.695 815.408 133.938 815.704 134.108C815.999 134.278 816.35 134.364 816.755 134.364C817.024 134.364 817.27 134.326 817.493 134.25C817.717 134.174 817.908 134.061 818.067 133.909C818.226 133.758 818.348 133.572 818.431 133.352L820.67 133.5C820.556 134.038 820.323 134.508 819.971 134.909C819.622 135.307 819.171 135.617 818.618 135.841C818.069 136.061 817.435 136.17 816.715 136.17ZM824.889 136.165C824.332 136.165 823.836 136.068 823.4 135.875C822.965 135.678 822.62 135.388 822.366 135.006C822.116 134.619 821.991 134.138 821.991 133.562C821.991 133.078 822.08 132.67 822.258 132.341C822.436 132.011 822.679 131.746 822.986 131.545C823.292 131.345 823.641 131.193 824.031 131.091C824.425 130.989 824.838 130.917 825.27 130.875C825.777 130.822 826.186 130.773 826.497 130.727C826.807 130.678 827.033 130.606 827.173 130.511C827.313 130.417 827.383 130.277 827.383 130.091V130.057C827.383 129.697 827.27 129.419 827.042 129.222C826.819 129.025 826.501 128.926 826.088 128.926C825.652 128.926 825.306 129.023 825.048 129.216C824.79 129.405 824.62 129.644 824.537 129.932L822.298 129.75C822.412 129.22 822.635 128.761 822.968 128.375C823.302 127.985 823.732 127.686 824.258 127.477C824.789 127.265 825.402 127.159 826.099 127.159C826.584 127.159 827.048 127.216 827.491 127.33C827.938 127.443 828.334 127.619 828.679 127.858C829.027 128.097 829.302 128.403 829.503 128.778C829.703 129.15 829.804 129.595 829.804 130.114V136H827.508V134.79H827.44C827.3 135.062 827.112 135.303 826.878 135.511C826.643 135.716 826.361 135.877 826.031 135.994C825.701 136.108 825.321 136.165 824.889 136.165ZM825.582 134.494C825.938 134.494 826.253 134.424 826.525 134.284C826.798 134.14 827.012 133.947 827.167 133.705C827.323 133.462 827.4 133.187 827.4 132.881V131.955C827.325 132.004 827.22 132.049 827.088 132.091C826.959 132.129 826.813 132.165 826.65 132.199C826.487 132.229 826.325 132.258 826.162 132.284C825.999 132.307 825.851 132.328 825.718 132.347C825.434 132.388 825.186 132.455 824.974 132.545C824.762 132.636 824.597 132.759 824.48 132.915C824.362 133.066 824.304 133.256 824.304 133.483C824.304 133.812 824.423 134.064 824.662 134.239C824.904 134.409 825.211 134.494 825.582 134.494ZM839.043 129.761L836.827 129.898C836.789 129.708 836.708 129.538 836.583 129.386C836.458 129.231 836.293 129.108 836.088 129.017C835.888 128.922 835.647 128.875 835.367 128.875C834.992 128.875 834.675 128.955 834.418 129.114C834.16 129.269 834.032 129.477 834.032 129.739C834.032 129.947 834.115 130.123 834.282 130.267C834.448 130.411 834.734 130.527 835.139 130.614L836.719 130.932C837.568 131.106 838.2 131.386 838.617 131.773C839.033 132.159 839.242 132.667 839.242 133.295C839.242 133.867 839.073 134.369 838.736 134.801C838.403 135.233 837.944 135.57 837.361 135.812C836.782 136.051 836.113 136.17 835.355 136.17C834.2 136.17 833.28 135.93 832.594 135.449C831.912 134.964 831.513 134.305 831.395 133.472L833.776 133.347C833.848 133.699 834.022 133.968 834.299 134.153C834.575 134.335 834.929 134.426 835.361 134.426C835.785 134.426 836.126 134.345 836.384 134.182C836.645 134.015 836.778 133.801 836.782 133.54C836.778 133.32 836.685 133.14 836.503 133C836.321 132.856 836.041 132.746 835.662 132.67L834.151 132.369C833.299 132.199 832.664 131.903 832.247 131.483C831.835 131.062 831.628 130.527 831.628 129.875C831.628 129.314 831.78 128.831 832.083 128.426C832.389 128.021 832.819 127.708 833.372 127.489C833.929 127.269 834.581 127.159 835.327 127.159C836.429 127.159 837.297 127.392 837.929 127.858C838.566 128.324 838.937 128.958 839.043 129.761Z" fill="white"/>
<path d="M921.642 137H919.392L923.489 125.364H926.091L930.193 137H927.943L924.835 127.75H924.744L921.642 137ZM921.716 132.438H927.852V134.131H921.716V132.438ZM931.726 137V125.364H933.783V129.716H933.868C933.974 129.504 934.124 129.278 934.317 129.04C934.51 128.797 934.771 128.591 935.101 128.42C935.43 128.246 935.851 128.159 936.362 128.159C937.036 128.159 937.644 128.331 938.186 128.676C938.732 129.017 939.163 129.523 939.482 130.193C939.804 130.86 939.964 131.678 939.964 132.648C939.964 133.606 939.807 134.42 939.493 135.091C939.179 135.761 938.75 136.273 938.209 136.625C937.667 136.977 937.054 137.153 936.368 137.153C935.868 137.153 935.453 137.07 935.124 136.903C934.794 136.737 934.529 136.536 934.328 136.301C934.131 136.062 933.978 135.837 933.868 135.625H933.749V137H931.726ZM933.743 132.636C933.743 133.201 933.822 133.695 933.982 134.119C934.144 134.544 934.377 134.875 934.68 135.114C934.987 135.348 935.358 135.466 935.794 135.466C936.249 135.466 936.629 135.345 936.936 135.102C937.243 134.856 937.474 134.521 937.629 134.097C937.788 133.669 937.868 133.182 937.868 132.636C937.868 132.095 937.79 131.614 937.635 131.193C937.48 130.773 937.249 130.443 936.942 130.205C936.635 129.966 936.252 129.847 935.794 129.847C935.355 129.847 934.982 129.962 934.675 130.193C934.368 130.424 934.135 130.748 933.976 131.165C933.821 131.581 933.743 132.072 933.743 132.636ZM945.52 137.17C944.668 137.17 943.929 136.983 943.304 136.608C942.679 136.233 942.194 135.708 941.849 135.034C941.509 134.36 941.338 133.572 941.338 132.67C941.338 131.769 941.509 130.979 941.849 130.301C942.194 129.623 942.679 129.097 943.304 128.722C943.929 128.347 944.668 128.159 945.52 128.159C946.372 128.159 947.111 128.347 947.736 128.722C948.361 129.097 948.844 129.623 949.185 130.301C949.529 130.979 949.702 131.769 949.702 132.67C949.702 133.572 949.529 134.36 949.185 135.034C948.844 135.708 948.361 136.233 947.736 136.608C947.111 136.983 946.372 137.17 945.52 137.17ZM945.531 135.523C945.993 135.523 946.38 135.396 946.69 135.142C947.001 134.884 947.232 134.54 947.384 134.108C947.539 133.676 947.616 133.195 947.616 132.665C947.616 132.131 947.539 131.648 947.384 131.216C947.232 130.78 947.001 130.434 946.69 130.176C946.38 129.919 945.993 129.79 945.531 129.79C945.058 129.79 944.664 129.919 944.349 130.176C944.039 130.434 943.806 130.78 943.651 131.216C943.499 131.648 943.423 132.131 943.423 132.665C943.423 133.195 943.499 133.676 943.651 134.108C943.806 134.54 944.039 134.884 944.349 135.142C944.664 135.396 945.058 135.523 945.531 135.523ZM957.01 133.33V128.273H959.067V137H957.072V135.449H956.982C956.785 135.937 956.461 136.337 956.01 136.648C955.563 136.958 955.012 137.114 954.357 137.114C953.785 137.114 953.279 136.987 952.839 136.733C952.404 136.475 952.063 136.102 951.817 135.614C951.571 135.121 951.447 134.527 951.447 133.83V128.273H953.504V133.511C953.504 134.064 953.656 134.504 953.959 134.83C954.262 135.155 954.66 135.318 955.152 135.318C955.455 135.318 955.749 135.244 956.033 135.097C956.317 134.949 956.55 134.729 956.732 134.438C956.917 134.142 957.01 133.773 957.01 133.33ZM965.54 128.273V129.864H960.523V128.273H965.54ZM961.761 126.182H963.818V134.375C963.818 134.652 963.86 134.864 963.943 135.011C964.03 135.155 964.144 135.254 964.284 135.307C964.424 135.36 964.58 135.386 964.75 135.386C964.879 135.386 964.996 135.377 965.102 135.358C965.212 135.339 965.295 135.322 965.352 135.307L965.699 136.915C965.589 136.953 965.432 136.994 965.227 137.04C965.027 137.085 964.78 137.112 964.489 137.119C963.973 137.134 963.509 137.057 963.097 136.886C962.684 136.712 962.356 136.443 962.114 136.08C961.875 135.716 961.758 135.261 961.761 134.716V126.182ZM978.655 125.364H980.763V132.966C980.763 133.799 980.566 134.532 980.172 135.165C979.782 135.797 979.232 136.292 978.524 136.648C977.816 137 976.988 137.176 976.041 137.176C975.09 137.176 974.261 137 973.553 136.648C972.844 136.292 972.295 135.797 971.905 135.165C971.515 134.532 971.32 133.799 971.32 132.966V125.364H973.428V132.79C973.428 133.275 973.534 133.706 973.746 134.085C973.962 134.464 974.265 134.761 974.655 134.977C975.045 135.189 975.507 135.295 976.041 135.295C976.575 135.295 977.037 135.189 977.428 134.977C977.821 134.761 978.125 134.464 978.337 134.085C978.549 133.706 978.655 133.275 978.655 132.79V125.364ZM989.861 130.58L987.986 130.784C987.933 130.595 987.84 130.417 987.707 130.25C987.579 130.083 987.404 129.949 987.185 129.847C986.965 129.744 986.696 129.693 986.378 129.693C985.95 129.693 985.59 129.786 985.298 129.972C985.01 130.157 984.868 130.398 984.872 130.693C984.868 130.947 984.961 131.153 985.151 131.312C985.344 131.472 985.662 131.602 986.105 131.705L987.594 132.023C988.42 132.201 989.033 132.483 989.435 132.869C989.84 133.256 990.045 133.761 990.048 134.386C990.045 134.936 989.884 135.42 989.565 135.841C989.251 136.258 988.813 136.583 988.253 136.818C987.692 137.053 987.048 137.17 986.321 137.17C985.253 137.17 984.393 136.947 983.741 136.5C983.09 136.049 982.702 135.422 982.577 134.619L984.582 134.426C984.673 134.82 984.866 135.117 985.162 135.318C985.457 135.519 985.842 135.619 986.315 135.619C986.804 135.619 987.196 135.519 987.491 135.318C987.791 135.117 987.94 134.869 987.94 134.574C987.94 134.324 987.844 134.117 987.651 133.955C987.461 133.792 987.166 133.667 986.764 133.58L985.276 133.267C984.438 133.093 983.819 132.799 983.418 132.386C983.016 131.97 982.817 131.443 982.821 130.807C982.817 130.269 982.963 129.803 983.259 129.409C983.558 129.011 983.973 128.705 984.503 128.489C985.037 128.269 985.652 128.159 986.349 128.159C987.372 128.159 988.177 128.377 988.764 128.812C989.355 129.248 989.721 129.837 989.861 130.58Z" fill="white"/>
<path fill-rule="evenodd" clip-rule="evenodd" d="M1119.82 118.09C1121.42 118.017 1121.93 118 1126 118C1130.07 118 1130.58 118.017 1132.18 118.09C1133.78 118.163 1134.87 118.417 1135.83 118.788C1136.81 119.171 1137.65 119.684 1138.48 120.518C1139.32 121.352 1139.83 122.188 1140.21 123.174C1140.58 124.129 1140.84 125.219 1140.91 126.816C1140.98 128.415 1141 128.926 1141 133C1141 137.074 1140.98 137.585 1140.91 139.184C1140.84 140.781 1140.58 141.871 1140.21 142.826C1139.83 143.812 1139.32 144.648 1138.48 145.482C1137.65 146.316 1136.81 146.829 1135.83 147.213C1134.87 147.583 1133.78 147.837 1132.18 147.91C1130.58 147.983 1130.07 148 1126 148C1121.93 148 1121.42 147.983 1119.82 147.91C1118.22 147.837 1117.13 147.583 1116.17 147.213C1115.19 146.829 1114.35 146.316 1113.52 145.482C1112.68 144.648 1112.17 143.812 1111.79 142.826C1111.42 141.871 1111.16 140.781 1111.09 139.184C1111.02 137.585 1111 137.074 1111 133C1111 128.926 1111.02 128.415 1111.09 126.816C1111.16 125.219 1111.42 124.129 1111.79 123.174C1112.17 122.188 1112.68 121.352 1113.52 120.518C1114.35 119.684 1115.19 119.171 1116.17 118.788C1117.13 118.417 1118.22 118.163 1119.82 118.09ZM1134.85 121.307C1134.32 121.101 1133.52 120.857 1132.06 120.79C1130.48 120.718 1130.01 120.703 1126 120.703C1121.99 120.703 1121.52 120.718 1119.94 120.79C1118.48 120.857 1117.68 121.101 1117.15 121.307C1116.45 121.579 1115.95 121.904 1115.43 122.429C1114.9 122.954 1114.58 123.453 1114.31 124.153C1114.1 124.682 1113.86 125.476 1113.79 126.939C1113.72 128.52 1113.7 128.995 1113.7 133C1113.7 137.005 1113.72 137.48 1113.79 139.061C1113.86 140.524 1114.1 141.318 1114.31 141.847C1114.58 142.547 1114.9 143.046 1115.43 143.571C1115.95 144.096 1116.45 144.421 1117.15 144.693C1117.68 144.899 1118.48 145.143 1119.94 145.21C1121.52 145.282 1121.99 145.297 1126 145.297C1130.01 145.297 1130.48 145.282 1132.06 145.21C1133.52 145.143 1134.32 144.899 1134.85 144.693C1135.55 144.421 1136.05 144.096 1136.57 143.571C1137.1 143.046 1137.42 142.547 1137.69 141.847C1137.9 141.318 1138.14 140.524 1138.21 139.061C1138.28 137.48 1138.3 137.005 1138.3 133C1138.3 128.995 1138.28 128.52 1138.21 126.939C1138.14 125.476 1137.9 124.682 1137.69 124.153C1137.42 123.453 1137.1 122.954 1136.57 122.429C1136.05 121.904 1135.55 121.579 1134.85 121.307ZM1126 125.297C1121.75 125.297 1118.3 128.746 1118.3 133C1118.3 137.254 1121.75 140.703 1126 140.703C1130.25 140.703 1133.7 137.254 1133.7 133C1133.7 128.746 1130.25 125.297 1126 125.297ZM1121 133C1121 135.761 1123.24 138 1126 138C1128.76 138 1131 135.761 1131 133C1131 130.239 1128.76 128 1126 128C1123.24 128 1121 130.239 1121 133ZM1134.01 126.793C1135 126.793 1135.81 125.987 1135.81 124.993C1135.81 123.999 1135 123.193 1134.01 123.193C1133.01 123.193 1132.21 123.999 1132.21 124.993C1132.21 125.987 1133.01 126.793 1134.01 126.793Z" fill="#FDD65B"/>
<path fill-rule="evenodd" clip-rule="evenodd" d="M1192.34 118H1165.66C1164.74 118 1164 118.741 1164 119.655V146.345C1164 147.259 1164.74 148 1165.66 148H1180.03V136.398H1176.13V131.857H1180.03V128.516C1180.03 124.641 1182.4 122.531 1185.86 122.531C1187.02 122.528 1188.19 122.587 1189.34 122.707V126.757H1186.97C1185.08 126.757 1184.72 127.647 1184.72 128.96V131.852H1189.22L1188.63 136.393H1184.69V148H1192.34C1193.26 148 1194 147.259 1194 146.345V119.655C1194 118.741 1193.26 118 1192.34 118Z" fill="#FDD65B"/>
<path fill-rule="evenodd" clip-rule="evenodd" d="M1219.75 148H1242.25C1244.32 148 1246 146.32 1246 144.25V121.75C1246 119.68 1244.32 118 1242.25 118H1219.75C1217.68 118 1216 119.68 1216 121.75V144.25C1216 146.32 1217.68 148 1219.75 148ZM1238.46 129.677C1238.46 134.755 1234.59 140.62 1227.52 140.62C1225.35 140.62 1223.33 139.983 1221.63 138.903C1221.93 138.94 1222.24 138.955 1222.55 138.955C1224.35 138.955 1226 138.34 1227.32 137.305C1225.64 137.275 1224.22 136.165 1223.73 134.635C1223.96 134.68 1224.2 134.702 1224.45 134.702C1224.8 134.702 1225.14 134.658 1225.46 134.568C1223.71 134.215 1222.38 132.655 1222.38 130.795V130.743C1222.9 131.028 1223.49 131.2 1224.12 131.222C1223.09 130.532 1222.41 129.355 1222.41 128.02C1222.41 127.315 1222.6 126.655 1222.93 126.085C1224.83 128.41 1227.66 129.948 1230.86 130.105C1230.8 129.82 1230.76 129.528 1230.76 129.227C1230.76 127.105 1232.49 125.38 1234.61 125.38C1235.71 125.38 1236.71 125.845 1237.41 126.595C1238.29 126.423 1239.11 126.108 1239.86 125.665C1239.57 126.565 1238.96 127.323 1238.16 127.795C1238.94 127.698 1239.68 127.495 1240.38 127.188C1239.86 127.96 1239.2 128.642 1238.45 129.183C1238.46 129.347 1238.46 129.513 1238.46 129.677Z" fill="#FDD65B"/>
<path fill-rule="evenodd" clip-rule="evenodd" d="M1283 118C1274.72 118 1268 124.716 1268 133.001C1268 139.356 1271.95 144.789 1277.53 146.974C1277.4 145.788 1277.28 143.962 1277.59 142.667C1277.86 141.496 1279.34 135.21 1279.34 135.21C1279.34 135.21 1278.9 134.312 1278.9 132.983C1278.9 130.897 1280.1 129.34 1281.61 129.34C1282.89 129.34 1283.51 130.301 1283.51 131.453C1283.51 132.74 1282.69 134.664 1282.27 136.448C1281.91 137.941 1283.01 139.158 1284.49 139.158C1287.15 139.158 1289.2 136.347 1289.2 132.289C1289.2 128.697 1286.62 126.186 1282.94 126.186C1278.67 126.186 1276.16 129.388 1276.16 132.696C1276.16 133.985 1276.66 135.368 1277.28 136.119C1277.4 136.268 1277.42 136.398 1277.38 136.55C1277.27 137.024 1277.02 138.042 1276.97 138.251C1276.9 138.525 1276.75 138.584 1276.47 138.452C1274.59 137.579 1273.42 134.84 1273.42 132.64C1273.42 127.908 1276.86 123.562 1283.33 123.562C1288.54 123.562 1292.58 127.271 1292.58 132.226C1292.58 137.396 1289.32 141.557 1284.8 141.557C1283.28 141.557 1281.85 140.767 1281.36 139.834C1281.36 139.834 1280.61 142.698 1280.42 143.4C1280.08 144.703 1279.17 146.337 1278.56 147.333C1279.96 147.767 1281.45 148.002 1283 148.002C1291.28 148.002 1298 141.286 1298 133.001C1298 124.716 1291.28 118 1283 118Z" fill="#FDD65B"/>
<path d="M515.478 262.712C514.479 263.72 513.229 264.224 511.726 264.224C510.223 264.224 508.977 263.72 507.988 262.712C506.989 261.713 506.49 260.481 506.49 259.016C506.49 257.56 506.989 256.323 507.988 255.306C508.977 254.298 510.223 253.794 511.726 253.794C513.229 253.794 514.479 254.298 515.478 255.306C516.477 256.323 516.976 257.56 516.976 259.016C516.976 260.481 516.477 261.713 515.478 262.712ZM511.726 263.342C512.967 263.342 513.994 262.927 514.806 262.096C515.618 261.275 516.024 260.248 516.024 259.016C516.024 257.784 515.618 256.753 514.806 255.922C513.994 255.091 512.967 254.676 511.726 254.676C510.494 254.676 509.472 255.091 508.66 255.922C507.848 256.753 507.442 257.784 507.442 259.016C507.442 260.248 507.848 261.275 508.66 262.096C509.472 262.927 510.494 263.342 511.726 263.342ZM511.782 262.166C510.942 262.166 510.27 261.877 509.766 261.298C509.253 260.729 508.996 259.968 508.996 259.016C508.996 258.055 509.248 257.289 509.752 256.72C510.256 256.151 510.933 255.866 511.782 255.866C512.501 255.866 513.089 256.067 513.546 256.468C514.013 256.86 514.293 257.397 514.386 258.078H513.364C513.289 257.658 513.107 257.331 512.818 257.098C512.538 256.865 512.193 256.748 511.782 256.748C511.231 256.748 510.797 256.949 510.48 257.35C510.172 257.751 510.018 258.307 510.018 259.016C510.018 259.725 510.172 260.281 510.48 260.682C510.797 261.074 511.231 261.27 511.782 261.27C512.193 261.27 512.543 261.153 512.832 260.92C513.121 260.687 513.299 260.355 513.364 259.926H514.386C514.283 260.607 513.999 261.153 513.532 261.564C513.065 261.965 512.482 262.166 511.782 262.166ZM522.111 262.936H527.375V264H520.795L520.823 263.454C520.879 262.633 521.065 261.928 521.383 261.34C521.7 260.752 522.237 260.239 522.993 259.8L524.253 259.072C524.887 258.699 525.335 258.335 525.597 257.98C525.867 257.625 526.003 257.196 526.003 256.692C526.003 256.141 525.825 255.703 525.471 255.376C525.125 255.04 524.645 254.872 524.029 254.872C522.638 254.872 521.943 255.586 521.943 257.014H520.781C520.771 255.997 521.056 255.208 521.635 254.648C522.213 254.088 523.021 253.808 524.057 253.808C524.999 253.808 525.765 254.074 526.353 254.606C526.941 255.157 527.235 255.852 527.235 256.692C527.235 257.98 526.479 259.063 524.967 259.94L523.903 260.556C523.287 260.929 522.843 261.293 522.573 261.648C522.302 261.993 522.148 262.423 522.111 262.936ZM534.616 262.88C534.009 263.776 533.108 264.224 531.914 264.224C530.71 264.224 529.809 263.776 529.212 262.88C528.605 261.975 528.302 260.687 528.302 259.016C528.302 257.345 528.605 256.057 529.212 255.152C529.809 254.256 530.71 253.808 531.914 253.808C533.108 253.808 534.009 254.256 534.616 255.152C535.222 256.057 535.526 257.345 535.526 259.016C535.526 260.687 535.222 261.975 534.616 262.88ZM531.914 254.872C530.327 254.872 529.534 256.253 529.534 259.016C529.534 261.779 530.327 263.16 531.914 263.16C533.5 263.16 534.294 261.779 534.294 259.016C534.294 256.253 533.5 254.872 531.914 254.872ZM537.847 262.936H543.111V264H536.531L536.559 263.454C536.615 262.633 536.802 261.928 537.119 261.34C537.436 260.752 537.973 260.239 538.729 259.8L539.989 259.072C540.624 258.699 541.072 258.335 541.333 257.98C541.604 257.625 541.739 257.196 541.739 256.692C541.739 256.141 541.562 255.703 541.207 255.376C540.862 255.04 540.381 254.872 539.765 254.872C538.374 254.872 537.679 255.586 537.679 257.014H536.517C536.508 255.997 536.792 255.208 537.371 254.648C537.95 254.088 538.757 253.808 539.793 253.808C540.736 253.808 541.501 254.074 542.089 254.606C542.677 255.157 542.971 255.852 542.971 256.692C542.971 257.98 542.215 259.063 540.703 259.94L539.639 260.556C539.023 260.929 538.58 261.293 538.309 261.648C538.038 261.993 537.884 262.423 537.847 262.936ZM550.352 262.88C549.745 263.776 548.845 264.224 547.65 264.224C546.446 264.224 545.545 263.776 544.948 262.88C544.341 261.975 544.038 260.687 544.038 259.016C544.038 257.345 544.341 256.057 544.948 255.152C545.545 254.256 546.446 253.808 547.65 253.808C548.845 253.808 549.745 254.256 550.352 255.152C550.959 256.057 551.262 257.345 551.262 259.016C551.262 260.687 550.959 261.975 550.352 262.88ZM547.65 254.872C546.063 254.872 545.27 256.253 545.27 259.016C545.27 261.779 546.063 263.16 547.65 263.16C549.237 263.16 550.03 261.779 550.03 259.016C550.03 256.253 549.237 254.872 547.65 254.872ZM564.165 264H562.919L561.757 261.102H557.221L556.073 264H554.841L558.817 254.032H560.133L564.165 264ZM557.683 259.926L557.641 260.038H561.337L561.281 259.912C561.048 259.343 560.441 257.807 559.461 255.306C558.798 257.079 558.206 258.619 557.683 259.926ZM568.01 264.168C567.011 264.168 566.204 263.823 565.588 263.132C564.972 262.441 564.664 261.527 564.664 260.388C564.664 259.231 564.972 258.311 565.588 257.63C566.185 256.949 566.992 256.608 568.01 256.608C568.868 256.608 569.573 256.841 570.124 257.308C570.674 257.775 571.006 258.414 571.118 259.226H569.956C569.872 258.713 569.648 258.316 569.284 258.036C568.929 257.756 568.504 257.616 568.01 257.616C567.347 257.616 566.82 257.859 566.428 258.344C566.036 258.82 565.84 259.501 565.84 260.388C565.84 261.265 566.036 261.947 566.428 262.432C566.829 262.917 567.356 263.16 568.01 263.16C568.504 263.16 568.934 263.015 569.298 262.726C569.662 262.437 569.886 262.035 569.97 261.522H571.118C570.996 262.334 570.651 262.978 570.082 263.454C569.522 263.93 568.831 264.168 568.01 264.168ZM579.917 256.608C580.701 256.608 581.307 256.837 581.737 257.294C582.175 257.742 582.395 258.344 582.395 259.1V264H581.275V259.212C581.275 258.148 580.771 257.616 579.763 257.616C579.231 257.616 578.787 257.831 578.433 258.26C578.087 258.68 577.915 259.277 577.915 260.052V264H576.795V259.212C576.795 258.148 576.291 257.616 575.283 257.616C574.76 257.616 574.321 257.831 573.967 258.26C573.612 258.68 573.435 259.277 573.435 260.052V264H572.315V256.776H573.379V257.84C573.855 257.019 574.55 256.608 575.465 256.608C576.547 256.608 577.289 257.061 577.691 257.966C578.195 257.061 578.937 256.608 579.917 256.608ZM590.372 260.388V260.78H584.884C584.94 261.564 585.16 262.157 585.542 262.558C585.925 262.95 586.448 263.146 587.11 263.146C588.109 263.146 588.748 262.698 589.028 261.802H590.19C589.994 262.53 589.63 263.109 589.098 263.538C588.566 263.958 587.894 264.168 587.082 264.168C586.084 264.168 585.276 263.827 584.66 263.146C584.035 262.465 583.722 261.545 583.722 260.388C583.722 259.249 584.03 258.335 584.646 257.644C585.253 256.953 586.056 256.608 587.054 256.608C588.09 256.608 588.902 256.967 589.49 257.686C590.078 258.405 590.372 259.305 590.372 260.388ZM587.054 257.63C586.466 257.63 585.986 257.817 585.612 258.19C585.239 258.554 585.006 259.081 584.912 259.772H589.168C589.112 259.137 588.898 258.624 588.524 258.232C588.151 257.831 587.661 257.63 587.054 257.63ZM592.345 264H590.931V262.6H592.345V264ZM605.18 264H603.934L602.772 261.102H598.236L597.088 264H595.856L599.832 254.032H601.148L605.18 264ZM598.698 259.926L598.656 260.038H602.352L602.296 259.912C602.063 259.343 601.456 257.807 600.476 255.306C599.814 257.079 599.221 258.619 598.698 259.926ZM607.149 264H606.029V254.032H607.149V264ZM609.952 264H608.832V254.032H609.952V264ZM617.689 256.664C617.876 256.664 618.002 256.669 618.067 256.678V257.756H617.787C617.04 257.756 616.457 257.943 616.037 258.316C615.626 258.68 615.421 259.203 615.421 259.884V264H614.301V256.776H615.365V258.05C615.85 257.126 616.625 256.664 617.689 256.664ZM620.261 255.684H619.071V254.312H620.261V255.684ZM620.233 264H619.113V256.776H620.233V264ZM627.404 257.826V256.776H628.468V263.72C628.468 264.709 628.179 265.489 627.6 266.058C627.022 266.627 626.191 266.912 625.108 266.912C624.212 266.912 623.494 266.707 622.952 266.296C622.411 265.885 622.103 265.316 622.028 264.588H623.148C623.288 265.503 623.942 265.96 625.108 265.96C626.602 265.96 627.348 265.213 627.348 263.72V263.02C626.779 263.785 625.972 264.168 624.926 264.168C623.909 264.168 623.097 263.823 622.49 263.132C621.874 262.441 621.566 261.527 621.566 260.388C621.566 259.231 621.874 258.311 622.49 257.63C623.088 256.949 623.9 256.608 624.926 256.608C626 256.608 626.826 257.014 627.404 257.826ZM625.066 263.16C625.776 263.16 626.34 262.913 626.76 262.418C627.18 261.923 627.39 261.247 627.39 260.388C627.39 259.529 627.18 258.853 626.76 258.358C626.34 257.863 625.776 257.616 625.066 257.616C624.366 257.616 623.802 257.868 623.372 258.372C622.952 258.876 622.742 259.548 622.742 260.388C622.742 261.228 622.952 261.9 623.372 262.404C623.802 262.908 624.366 263.16 625.066 263.16ZM633.479 256.608C634.281 256.608 634.907 256.827 635.355 257.266C635.803 257.705 636.027 258.321 636.027 259.114V264H634.907V259.226C634.907 258.153 634.356 257.616 633.255 257.616C632.732 257.616 632.27 257.812 631.869 258.204C631.467 258.596 631.267 259.165 631.267 259.912V264H630.147V254.032H631.267V257.77C631.817 256.995 632.555 256.608 633.479 256.608ZM640.598 256.776V257.756H639.114V262.446C639.114 262.857 639.389 263.062 639.94 263.062H640.598V264C640.29 264.028 640.024 264.042 639.8 264.042C638.596 264.042 637.994 263.543 637.994 262.544V257.756H636.804V256.776H637.994V254.732H639.114V256.776H640.598ZM647.835 256.664C648.022 256.664 648.148 256.669 648.213 256.678V257.756H647.933C647.187 257.756 646.603 257.943 646.183 258.316C645.773 258.68 645.567 259.203 645.567 259.884V264H644.447V256.776H645.511V258.05C645.997 257.126 646.771 256.664 647.835 256.664ZM655.136 260.388V260.78H649.648C649.704 261.564 649.923 262.157 650.306 262.558C650.689 262.95 651.211 263.146 651.874 263.146C652.873 263.146 653.512 262.698 653.792 261.802H654.954C654.758 262.53 654.394 263.109 653.862 263.538C653.33 263.958 652.658 264.168 651.846 264.168C650.847 264.168 650.04 263.827 649.424 263.146C648.799 262.465 648.486 261.545 648.486 260.388C648.486 259.249 648.794 258.335 649.41 257.644C650.017 256.953 650.819 256.608 651.818 256.608C652.854 256.608 653.666 256.967 654.254 257.686C654.842 258.405 655.136 259.305 655.136 260.388ZM651.818 257.63C651.23 257.63 650.749 257.817 650.376 258.19C650.003 258.554 649.769 259.081 649.676 259.772H653.932C653.876 259.137 653.661 258.624 653.288 258.232C652.915 257.831 652.425 257.63 651.818 257.63ZM658.945 264.168C657.013 264.168 655.991 263.347 655.879 261.704H657.013C657.078 262.245 657.255 262.633 657.545 262.866C657.843 263.09 658.31 263.202 658.945 263.202C660.102 263.202 660.681 262.829 660.681 262.082C660.681 261.755 660.559 261.508 660.317 261.34C660.083 261.172 659.654 261.027 659.029 260.906L658.357 260.78C656.854 260.5 656.103 259.791 656.103 258.652C656.103 258.027 656.336 257.532 656.803 257.168C657.279 256.795 657.923 256.608 658.735 256.608C660.648 256.608 661.628 257.406 661.675 259.002H660.555C660.527 258.479 660.368 258.111 660.079 257.896C659.789 257.681 659.341 257.574 658.735 257.574C658.249 257.574 657.876 257.667 657.615 257.854C657.353 258.041 657.223 258.302 657.223 258.638C657.223 258.955 657.335 259.193 657.559 259.352C657.783 259.511 658.156 259.646 658.679 259.758L659.323 259.884C660.209 260.061 660.844 260.313 661.227 260.64C661.619 260.967 661.815 261.424 661.815 262.012C661.815 262.693 661.558 263.225 661.045 263.608C660.541 263.981 659.841 264.168 658.945 264.168ZM669.232 260.388V260.78H663.744C663.8 261.564 664.019 262.157 664.402 262.558C664.784 262.95 665.307 263.146 665.97 263.146C666.968 263.146 667.608 262.698 667.888 261.802H669.05C668.854 262.53 668.49 263.109 667.958 263.538C667.426 263.958 666.754 264.168 665.942 264.168C664.943 264.168 664.136 263.827 663.52 263.146C662.894 262.465 662.582 261.545 662.582 260.388C662.582 259.249 662.89 258.335 663.506 257.644C664.112 256.953 664.915 256.608 665.914 256.608C666.95 256.608 667.762 256.967 668.35 257.686C668.938 258.405 669.232 259.305 669.232 260.388ZM665.914 257.63C665.326 257.63 664.845 257.817 664.472 258.19C664.098 258.554 663.865 259.081 663.772 259.772H668.028C667.972 259.137 667.757 258.624 667.384 258.232C667.01 257.831 666.52 257.63 665.914 257.63ZM673.949 256.664C674.135 256.664 674.261 256.669 674.327 256.678V257.756H674.047C673.3 257.756 672.717 257.943 672.297 258.316C671.886 258.68 671.681 259.203 671.681 259.884V264H670.561V256.776H671.625V258.05C672.11 257.126 672.885 256.664 673.949 256.664ZM679.26 259.982L680.45 256.776H681.654L678.812 264H677.636L674.808 256.776H676.026L677.216 259.996C677.804 261.573 678.145 262.507 678.238 262.796C678.406 262.301 678.747 261.363 679.26 259.982ZM688.441 260.388V260.78H682.953C683.009 261.564 683.228 262.157 683.611 262.558C683.993 262.95 684.516 263.146 685.179 263.146C686.177 263.146 686.817 262.698 687.097 261.802H688.259C688.063 262.53 687.699 263.109 687.167 263.538C686.635 263.958 685.963 264.168 685.151 264.168C684.152 264.168 683.345 263.827 682.729 263.146C682.103 262.465 681.791 261.545 681.791 260.388C681.791 259.249 682.099 258.335 682.715 257.644C683.321 256.953 684.124 256.608 685.123 256.608C686.159 256.608 686.971 256.967 687.559 257.686C688.147 258.405 688.441 259.305 688.441 260.388ZM685.123 257.63C684.535 257.63 684.054 257.817 683.681 258.19C683.307 258.554 683.074 259.081 682.981 259.772H687.237C687.181 259.137 686.966 258.624 686.593 258.232C686.219 257.831 685.729 257.63 685.123 257.63ZM695.202 257.812V254.032H696.322V264H695.258V262.88C694.679 263.739 693.853 264.168 692.78 264.168C691.762 264.168 690.95 263.823 690.344 263.132C689.728 262.441 689.42 261.527 689.42 260.388C689.42 259.231 689.728 258.311 690.344 257.63C690.941 256.949 691.753 256.608 692.78 256.608C693.816 256.608 694.623 257.009 695.202 257.812ZM690.596 260.444C690.596 261.303 690.806 261.97 691.226 262.446C691.646 262.922 692.21 263.16 692.92 263.16C693.629 263.16 694.194 262.913 694.614 262.418C695.034 261.933 695.244 261.256 695.244 260.388C695.244 259.529 695.034 258.853 694.614 258.358C694.194 257.863 693.629 257.616 692.92 257.616C692.22 257.616 691.655 257.873 691.226 258.386C690.806 258.89 690.596 259.576 690.596 260.444ZM699.204 264H697.79V262.6H699.204V264Z" fill="white"/>
<path d="M725.91 254.032H730.054C731.109 254.032 731.921 254.307 732.49 254.858C733.069 255.409 733.358 256.155 733.358 257.098C733.358 258.041 733.069 258.787 732.49 259.338C731.921 259.889 731.109 260.164 730.054 260.164H727.086V264H725.91V254.032ZM727.086 259.1H730.054C730.745 259.1 731.263 258.932 731.608 258.596C731.963 258.251 732.14 257.751 732.14 257.098C732.14 256.445 731.963 255.95 731.608 255.614C731.263 255.269 730.745 255.096 730.054 255.096H727.086V259.1ZM737.855 256.664C738.042 256.664 738.168 256.669 738.233 256.678V257.756H737.953C737.206 257.756 736.623 257.943 736.203 258.316C735.792 258.68 735.587 259.203 735.587 259.884V264H734.467V256.776H735.531V258.05C736.016 257.126 736.791 256.664 737.855 256.664ZM740.427 255.684H739.237V254.312H740.427V255.684ZM740.399 264H739.279V256.776H740.399V264ZM745.696 259.982L746.886 256.776H748.09L745.248 264H744.072L741.244 256.776H742.462L743.652 259.996C744.24 261.573 744.58 262.507 744.674 262.796C744.842 262.301 745.182 261.363 745.696 259.982ZM754.553 263.09H754.959V264C754.772 264.028 754.567 264.042 754.343 264.042C753.587 264.042 753.181 263.697 753.125 263.006C752.621 263.781 751.837 264.168 750.773 264.168C749.979 264.168 749.354 263.986 748.897 263.622C748.449 263.249 748.225 262.726 748.225 262.054C748.225 260.747 749.116 260.001 750.899 259.814L751.935 259.702C752.691 259.618 753.069 259.287 753.069 258.708C753.069 258.307 752.943 258.017 752.691 257.84C752.448 257.663 752.033 257.574 751.445 257.574C750.819 257.574 750.367 257.681 750.087 257.896C749.816 258.101 749.662 258.47 749.625 259.002H748.505C748.598 257.406 749.578 256.608 751.445 256.608C753.255 256.608 754.161 257.308 754.161 258.708V262.74C754.161 262.973 754.291 263.09 754.553 263.09ZM750.829 263.216C751.426 263.216 751.949 263.034 752.397 262.67C752.845 262.315 753.069 261.807 753.069 261.144V260.29C752.863 260.449 752.546 260.551 752.117 260.598L751.067 260.724C750.46 260.799 750.026 260.939 749.765 261.144C749.513 261.349 749.387 261.643 749.387 262.026C749.387 262.399 749.508 262.693 749.751 262.908C749.993 263.113 750.353 263.216 750.829 263.216ZM758.873 264.168C757.874 264.168 757.067 263.823 756.451 263.132C755.835 262.441 755.527 261.527 755.527 260.388C755.527 259.231 755.835 258.311 756.451 257.63C757.048 256.949 757.856 256.608 758.873 256.608C759.732 256.608 760.436 256.841 760.987 257.308C761.538 257.775 761.869 258.414 761.981 259.226H760.819C760.735 258.713 760.511 258.316 760.147 258.036C759.792 257.756 759.368 257.616 758.873 257.616C758.21 257.616 757.683 257.859 757.291 258.344C756.899 258.82 756.703 259.501 756.703 260.388C756.703 261.265 756.899 261.947 757.291 262.432C757.692 262.917 758.22 263.16 758.873 263.16C759.368 263.16 759.797 263.015 760.161 262.726C760.525 262.437 760.749 262.035 760.833 261.522H761.981C761.86 262.334 761.514 262.978 760.945 263.454C760.385 263.93 759.694 264.168 758.873 264.168ZM766.597 259.772L767.619 256.776H768.837L765.785 265.134C765.571 265.741 765.277 266.165 764.903 266.408C764.53 266.66 764.04 266.786 763.433 266.786C763.228 266.786 763.004 266.772 762.761 266.744V265.806H763.419C764.063 265.806 764.502 265.507 764.735 264.91L764.987 264.238L762.271 256.776H763.503L764.525 259.786C764.889 260.85 765.235 261.891 765.561 262.908C765.832 262.04 766.177 260.995 766.597 259.772ZM772.476 254.032H776.62C777.675 254.032 778.487 254.307 779.056 254.858C779.635 255.409 779.924 256.155 779.924 257.098C779.924 258.041 779.635 258.787 779.056 259.338C778.487 259.889 777.675 260.164 776.62 260.164H773.652V264H772.476V254.032ZM773.652 259.1H776.62C777.311 259.1 777.829 258.932 778.174 258.596C778.529 258.251 778.706 257.751 778.706 257.098C778.706 256.445 778.529 255.95 778.174 255.614C777.829 255.269 777.311 255.096 776.62 255.096H773.652V259.1ZM786.348 263.132C785.685 263.823 784.845 264.168 783.828 264.168C782.811 264.168 781.971 263.823 781.308 263.132C780.655 262.451 780.328 261.536 780.328 260.388C780.328 259.24 780.655 258.325 781.308 257.644C781.971 256.953 782.811 256.608 783.828 256.608C784.845 256.608 785.685 256.953 786.348 257.644C787.001 258.325 787.328 259.24 787.328 260.388C787.328 261.536 787.001 262.451 786.348 263.132ZM782.134 262.418C782.554 262.913 783.119 263.16 783.828 263.16C784.537 263.16 785.102 262.913 785.522 262.418C785.942 261.933 786.152 261.256 786.152 260.388C786.152 259.511 785.942 258.829 785.522 258.344C785.102 257.859 784.537 257.616 783.828 257.616C783.119 257.616 782.554 257.859 782.134 258.344C781.714 258.829 781.504 259.511 781.504 260.388C781.504 261.256 781.714 261.933 782.134 262.418ZM789.782 264H788.662V254.032H789.782V264ZM792.613 255.684H791.423V254.312H792.613V255.684ZM792.585 264H791.465V256.776H792.585V264ZM797.264 264.168C796.265 264.168 795.458 263.823 794.842 263.132C794.226 262.441 793.918 261.527 793.918 260.388C793.918 259.231 794.226 258.311 794.842 257.63C795.439 256.949 796.246 256.608 797.264 256.608C798.122 256.608 798.827 256.841 799.378 257.308C799.928 257.775 800.26 258.414 800.372 259.226H799.21C799.126 258.713 798.902 258.316 798.538 258.036C798.183 257.756 797.758 257.616 797.264 257.616C796.601 257.616 796.074 257.859 795.682 258.344C795.29 258.82 795.094 259.501 795.094 260.388C795.094 261.265 795.29 261.947 795.682 262.432C796.083 262.917 796.61 263.16 797.264 263.16C797.758 263.16 798.188 263.015 798.552 262.726C798.916 262.437 799.14 262.035 799.224 261.522H800.372C800.25 262.334 799.905 262.978 799.336 263.454C798.776 263.93 798.085 264.168 797.264 264.168ZM804.988 259.772L806.01 256.776H807.228L804.176 265.134C803.961 265.741 803.667 266.165 803.294 266.408C802.92 266.66 802.43 266.786 801.824 266.786C801.618 266.786 801.394 266.772 801.152 266.744V265.806H801.81C802.454 265.806 802.892 265.507 803.126 264.91L803.378 264.238L800.662 256.776H801.894L802.916 259.786C803.28 260.85 803.625 261.891 803.952 262.908C804.222 262.04 804.568 260.995 804.988 259.772Z" fill="white"/>
<path d="M829.28 254.032H837.274V255.096H833.886V264H832.668V255.096H829.28V254.032ZM843.017 260.388V260.78H837.529C837.585 261.564 837.804 262.157 838.187 262.558C838.57 262.95 839.092 263.146 839.755 263.146C840.754 263.146 841.393 262.698 841.673 261.802H842.835C842.639 262.53 842.275 263.109 841.743 263.538C841.211 263.958 840.539 264.168 839.727 264.168C838.728 264.168 837.921 263.827 837.305 263.146C836.68 262.465 836.367 261.545 836.367 260.388C836.367 259.249 836.675 258.335 837.291 257.644C837.898 256.953 838.7 256.608 839.699 256.608C840.735 256.608 841.547 256.967 842.135 257.686C842.723 258.405 843.017 259.305 843.017 260.388ZM839.699 257.63C839.111 257.63 838.63 257.817 838.257 258.19C837.884 258.554 837.65 259.081 837.557 259.772H841.813C841.757 259.137 841.542 258.624 841.169 258.232C840.796 257.831 840.306 257.63 839.699 257.63ZM847.734 256.664C847.921 256.664 848.047 256.669 848.112 256.678V257.756H847.832C847.085 257.756 846.502 257.943 846.082 258.316C845.671 258.68 845.466 259.203 845.466 259.884V264H844.346V256.776H845.41V258.05C845.895 257.126 846.67 256.664 847.734 256.664ZM856.76 256.608C857.544 256.608 858.151 256.837 858.58 257.294C859.019 257.742 859.238 258.344 859.238 259.1V264H858.118V259.212C858.118 258.148 857.614 257.616 856.606 257.616C856.074 257.616 855.631 257.831 855.276 258.26C854.931 258.68 854.758 259.277 854.758 260.052V264H853.638V259.212C853.638 258.148 853.134 257.616 852.126 257.616C851.604 257.616 851.165 257.831 850.81 258.26C850.456 258.68 850.278 259.277 850.278 260.052V264H849.158V256.776H850.222V257.84C850.698 257.019 851.394 256.608 852.308 256.608C853.391 256.608 854.133 257.061 854.534 257.966C855.038 257.061 855.78 256.608 856.76 256.608ZM863.464 264.168C861.532 264.168 860.51 263.347 860.398 261.704H861.532C861.598 262.245 861.775 262.633 862.064 262.866C862.363 263.09 862.83 263.202 863.464 263.202C864.622 263.202 865.2 262.829 865.2 262.082C865.2 261.755 865.079 261.508 864.836 261.34C864.603 261.172 864.174 261.027 863.548 260.906L862.876 260.78C861.374 260.5 860.622 259.791 860.622 258.652C860.622 258.027 860.856 257.532 861.322 257.168C861.798 256.795 862.442 256.608 863.254 256.608C865.168 256.608 866.148 257.406 866.194 259.002H865.074C865.046 258.479 864.888 258.111 864.598 257.896C864.309 257.681 863.861 257.574 863.254 257.574C862.769 257.574 862.396 257.667 862.134 257.854C861.873 258.041 861.742 258.302 861.742 258.638C861.742 258.955 861.854 259.193 862.078 259.352C862.302 259.511 862.676 259.646 863.198 259.758L863.842 259.884C864.729 260.061 865.364 260.313 865.746 260.64C866.138 260.967 866.334 261.424 866.334 262.012C866.334 262.693 866.078 263.225 865.564 263.608C865.06 263.981 864.36 264.168 863.464 264.168ZM875.787 263.132C875.125 263.823 874.285 264.168 873.267 264.168C872.25 264.168 871.41 263.823 870.747 263.132C870.094 262.451 869.767 261.536 869.767 260.388C869.767 259.24 870.094 258.325 870.747 257.644C871.41 256.953 872.25 256.608 873.267 256.608C874.285 256.608 875.125 256.953 875.787 257.644C876.441 258.325 876.767 259.24 876.767 260.388C876.767 261.536 876.441 262.451 875.787 263.132ZM871.573 262.418C871.993 262.913 872.558 263.16 873.267 263.16C873.977 263.16 874.541 262.913 874.961 262.418C875.381 261.933 875.591 261.256 875.591 260.388C875.591 259.511 875.381 258.829 874.961 258.344C874.541 257.859 873.977 257.616 873.267 257.616C872.558 257.616 871.993 257.859 871.573 258.344C871.153 258.829 870.943 259.511 870.943 260.388C870.943 261.256 871.153 261.933 871.573 262.418ZM881.118 254.984H880.474C879.83 254.984 879.508 255.325 879.508 256.006V256.776H881.048V257.756H879.508V264H878.388V257.756H877.198V256.776H878.388V256.034C878.388 254.681 879.06 254.004 880.404 254.004C880.582 254.004 880.82 254.013 881.118 254.032V254.984ZM888.703 264.224C887.405 264.224 886.393 263.93 885.665 263.342C884.937 262.754 884.568 261.877 884.559 260.71H885.777C885.805 262.343 886.78 263.16 888.703 263.16C889.515 263.16 890.135 263.001 890.565 262.684C891.003 262.367 891.223 261.905 891.223 261.298C891.223 260.822 891.041 260.453 890.677 260.192C890.322 259.921 889.697 259.688 888.801 259.492L887.919 259.296C886.911 259.063 886.155 258.727 885.651 258.288C885.147 257.84 884.895 257.215 884.895 256.412C884.895 255.619 885.203 254.989 885.819 254.522C886.435 254.046 887.261 253.808 888.297 253.808C888.997 253.808 889.603 253.892 890.117 254.06C890.639 254.228 891.045 254.466 891.335 254.774C891.624 255.073 891.834 255.399 891.965 255.754C892.105 256.109 892.179 256.501 892.189 256.93H890.985C890.929 256.221 890.695 255.703 890.285 255.376C889.883 255.04 889.221 254.872 888.297 254.872C887.597 254.872 887.055 255.007 886.673 255.278C886.299 255.549 886.113 255.927 886.113 256.412C886.113 256.897 886.276 257.275 886.603 257.546C886.92 257.817 887.536 258.055 888.451 258.26L889.333 258.456C890.434 258.699 891.227 259.049 891.713 259.506C892.198 259.954 892.441 260.551 892.441 261.298C892.441 262.203 892.109 262.917 891.447 263.44C890.784 263.963 889.869 264.224 888.703 264.224ZM900.138 260.388V260.78H894.65C894.706 261.564 894.925 262.157 895.308 262.558C895.691 262.95 896.213 263.146 896.876 263.146C897.875 263.146 898.514 262.698 898.794 261.802H899.956C899.76 262.53 899.396 263.109 898.864 263.538C898.332 263.958 897.66 264.168 896.848 264.168C895.849 264.168 895.042 263.827 894.426 263.146C893.801 262.465 893.488 261.545 893.488 260.388C893.488 259.249 893.796 258.335 894.412 257.644C895.019 256.953 895.821 256.608 896.82 256.608C897.856 256.608 898.668 256.967 899.256 257.686C899.844 258.405 900.138 259.305 900.138 260.388ZM896.82 257.63C896.232 257.63 895.751 257.817 895.378 258.19C895.005 258.554 894.771 259.081 894.678 259.772H898.934C898.878 259.137 898.663 258.624 898.29 258.232C897.917 257.831 897.427 257.63 896.82 257.63ZM904.855 256.664C905.042 256.664 905.168 256.669 905.233 256.678V257.756H904.953C904.206 257.756 903.623 257.943 903.203 258.316C902.792 258.68 902.587 259.203 902.587 259.884V264H901.467V256.776H902.531V258.05C903.016 257.126 903.791 256.664 904.855 256.664ZM910.167 259.982L911.357 256.776H912.561L909.719 264H908.543L905.715 256.776H906.933L908.123 259.996C908.711 261.573 909.051 262.507 909.145 262.796C909.313 262.301 909.653 261.363 910.167 259.982ZM914.551 255.684H913.361V254.312H914.551V255.684ZM914.523 264H913.403V256.776H914.523V264ZM919.201 264.168C918.203 264.168 917.395 263.823 916.779 263.132C916.163 262.441 915.855 261.527 915.855 260.388C915.855 259.231 916.163 258.311 916.779 257.63C917.377 256.949 918.184 256.608 919.201 256.608C920.06 256.608 920.765 256.841 921.315 257.308C921.866 257.775 922.197 258.414 922.309 259.226H921.147C921.063 258.713 920.839 258.316 920.475 258.036C920.121 257.756 919.696 257.616 919.201 257.616C918.539 257.616 918.011 257.859 917.619 258.344C917.227 258.82 917.031 259.501 917.031 260.388C917.031 261.265 917.227 261.947 917.619 262.432C918.021 262.917 918.548 263.16 919.201 263.16C919.696 263.16 920.125 263.015 920.489 262.726C920.853 262.437 921.077 262.035 921.161 261.522H922.309C922.188 262.334 921.843 262.978 921.273 263.454C920.713 263.93 920.023 264.168 919.201 264.168ZM929.806 260.388V260.78H924.318C924.374 261.564 924.593 262.157 924.976 262.558C925.359 262.95 925.881 263.146 926.544 263.146C927.543 263.146 928.182 262.698 928.462 261.802H929.624C929.428 262.53 929.064 263.109 928.532 263.538C928 263.958 927.328 264.168 926.516 264.168C925.517 264.168 924.71 263.827 924.094 263.146C923.469 262.465 923.156 261.545 923.156 260.388C923.156 259.249 923.464 258.335 924.08 257.644C924.687 256.953 925.489 256.608 926.488 256.608C927.524 256.608 928.336 256.967 928.924 257.686C929.512 258.405 929.806 259.305 929.806 260.388ZM926.488 257.63C925.9 257.63 925.419 257.817 925.046 258.19C924.673 258.554 924.439 259.081 924.346 259.772H928.602C928.546 259.137 928.331 258.624 927.958 258.232C927.585 257.831 927.095 257.63 926.488 257.63Z" fill="white"/>
<path d="M193.898 144.596L187.337 134.929C187.183 134.698 186.951 134.468 186.72 134.315L186.179 133.931C185.562 133.471 185.562 132.627 186.179 132.166L186.642 131.859C186.874 131.706 187.105 131.476 187.26 131.246L193.975 121.731C194.516 120.887 194.593 119.813 193.975 119.046C193.203 118.048 191.814 117.818 190.811 118.509L181.085 125.031C180.853 125.184 180.622 125.414 180.467 125.644L180.081 126.182C179.618 126.795 178.769 126.795 178.306 126.182L177.997 125.721C177.843 125.491 177.611 125.261 177.38 125.107L167.808 118.432C166.959 117.895 165.878 117.818 165.106 118.432C164.103 119.199 163.871 120.58 164.566 121.578L171.127 131.246C171.282 131.476 171.513 131.706 171.745 131.859L172.285 132.243C172.903 132.703 172.903 133.547 172.285 134.008L171.822 134.315C171.59 134.468 171.359 134.698 171.204 134.929L164.412 144.52C163.794 145.44 163.871 146.668 164.643 147.435C165.415 148.202 166.65 148.356 167.576 147.742L177.302 141.22C177.534 141.067 177.766 140.837 177.92 140.606L178.306 140.069C178.769 139.456 179.618 139.456 180.081 140.069L180.39 140.53C180.544 140.76 180.776 140.99 181.007 141.144L190.733 147.896C191.66 148.509 192.895 148.433 193.667 147.665C194.438 146.745 194.516 145.517 193.898 144.596Z" fill="#E3B748"/>
<path d="M205.695 125.929H209.119V141.213H205.695V125.929Z" fill="white"/>
<path d="M220.057 128.576C218.462 128.576 217.306 129.024 216.589 129.921C215.887 130.803 215.536 132.016 215.536 133.56C215.536 134.31 215.624 134.994 215.799 135.611C215.975 136.214 216.238 136.736 216.589 137.177C216.94 137.618 217.379 137.964 217.906 138.214C218.433 138.449 219.047 138.567 219.749 138.567C220.13 138.567 220.452 138.559 220.715 138.545C220.993 138.53 221.234 138.501 221.439 138.457V133.141H224.863V140.706C224.453 140.868 223.795 141.037 222.888 141.213C221.981 141.405 220.861 141.5 219.53 141.5C218.389 141.5 217.35 141.324 216.414 140.971C215.492 140.618 214.702 140.103 214.043 139.427C213.385 138.751 212.873 137.92 212.507 136.935C212.156 135.95 211.981 134.825 211.981 133.56C211.981 132.281 212.178 131.149 212.573 130.164C212.968 129.179 213.509 128.348 214.197 127.671C214.885 126.98 215.689 126.458 216.611 126.106C217.548 125.753 218.542 125.576 219.596 125.576C220.313 125.576 220.956 125.628 221.527 125.731C222.112 125.819 222.61 125.929 223.019 126.061C223.444 126.179 223.788 126.304 224.051 126.436C224.329 126.569 224.526 126.672 224.643 126.745L223.656 129.502C223.188 129.252 222.646 129.039 222.032 128.862C221.432 128.671 220.774 128.576 220.057 128.576Z" fill="white"/>
<path d="M232.196 138.589C232.679 138.589 233.074 138.552 233.381 138.479C233.703 138.39 233.959 138.28 234.149 138.148C234.34 138.001 234.471 137.832 234.544 137.641C234.618 137.449 234.654 137.236 234.654 137.001C234.654 136.501 234.42 136.089 233.952 135.766C233.484 135.428 232.679 135.067 231.538 134.685C231.04 134.509 230.543 134.31 230.045 134.09C229.548 133.854 229.102 133.568 228.707 133.229C228.312 132.877 227.99 132.457 227.741 131.972C227.492 131.472 227.368 130.869 227.368 130.164C227.368 129.458 227.5 128.826 227.763 128.267C228.026 127.693 228.399 127.208 228.882 126.811C229.365 126.414 229.95 126.113 230.638 125.907C231.326 125.686 232.101 125.576 232.964 125.576C233.988 125.576 234.874 125.686 235.62 125.907C236.366 126.128 236.98 126.37 237.463 126.635L236.476 129.348C236.051 129.127 235.576 128.936 235.049 128.774C234.537 128.598 233.915 128.51 233.184 128.51C232.364 128.51 231.772 128.627 231.406 128.862C231.055 129.083 230.879 129.429 230.879 129.899C230.879 130.178 230.945 130.414 231.077 130.605C231.209 130.796 231.391 130.972 231.626 131.134C231.874 131.281 232.152 131.421 232.46 131.553C232.781 131.671 233.133 131.796 233.513 131.928C234.303 132.222 234.991 132.516 235.576 132.81C236.161 133.09 236.644 133.421 237.024 133.803C237.419 134.185 237.712 134.634 237.902 135.148C238.092 135.663 238.187 136.288 238.187 137.023C238.187 138.449 237.69 139.559 236.695 140.353C235.7 141.133 234.201 141.522 232.196 141.522C231.523 141.522 230.916 141.478 230.375 141.39C229.833 141.316 229.35 141.221 228.926 141.103C228.517 140.986 228.158 140.861 227.851 140.728C227.558 140.596 227.309 140.471 227.105 140.353L228.07 137.618C228.524 137.868 229.08 138.096 229.738 138.302C230.411 138.493 231.231 138.589 232.196 138.589Z" fill="white"/>
<path d="M251.673 125.929V128.862H247.087V141.213H243.663V128.862H239.076V125.929H251.673Z" fill="white"/>
<path d="M259.821 141.522C258.753 141.522 257.831 141.375 257.056 141.081C256.28 140.772 255.637 140.353 255.125 139.824C254.627 139.28 254.254 138.64 254.005 137.905C253.771 137.155 253.654 136.332 253.654 135.435V125.929H257.078V135.148C257.078 135.766 257.144 136.295 257.275 136.736C257.422 137.163 257.612 137.516 257.846 137.795C258.095 138.06 258.387 138.251 258.724 138.368C259.075 138.486 259.455 138.545 259.865 138.545C260.699 138.545 261.372 138.287 261.884 137.773C262.411 137.258 262.674 136.383 262.674 135.148V125.929H266.098V135.435C266.098 136.332 265.973 137.155 265.725 137.905C265.476 138.655 265.095 139.302 264.583 139.846C264.071 140.375 263.42 140.787 262.63 141.081C261.84 141.375 260.904 141.522 259.821 141.522Z" fill="white"/>
<path d="M272.814 138.412C272.975 138.427 273.158 138.442 273.363 138.457C273.582 138.457 273.838 138.457 274.131 138.457C275.842 138.457 277.108 138.023 277.927 137.155C278.761 136.288 279.178 135.089 279.178 133.56C279.178 131.958 278.783 130.745 277.993 129.921C277.203 129.098 275.952 128.686 274.24 128.686C274.006 128.686 273.765 128.693 273.516 128.708C273.267 128.708 273.033 128.723 272.814 128.752V138.412ZM282.712 133.56C282.712 134.884 282.507 136.038 282.097 137.023C281.687 138.008 281.102 138.824 280.341 139.471C279.595 140.118 278.681 140.603 277.598 140.927C276.515 141.25 275.301 141.412 273.955 141.412C273.341 141.412 272.624 141.383 271.804 141.324C270.985 141.28 270.18 141.177 269.39 141.015V126.128C270.18 125.981 271 125.885 271.848 125.841C272.711 125.782 273.45 125.753 274.065 125.753C275.367 125.753 276.545 125.9 277.598 126.194C278.666 126.488 279.581 126.951 280.341 127.583C281.102 128.215 281.687 129.024 282.097 130.009C282.507 130.994 282.712 132.178 282.712 133.56Z" fill="white"/>
<path d="M285.571 125.929H288.995V141.213H285.571V125.929Z" fill="white"/>
<path d="M295.39 133.56C295.39 134.31 295.478 134.986 295.653 135.589C295.844 136.192 296.107 136.714 296.444 137.155C296.795 137.582 297.219 137.913 297.716 138.148C298.214 138.383 298.784 138.501 299.428 138.501C300.057 138.501 300.621 138.383 301.118 138.148C301.63 137.913 302.054 137.582 302.391 137.155C302.742 136.714 303.005 136.192 303.181 135.589C303.371 134.986 303.466 134.31 303.466 133.56C303.466 132.81 303.371 132.134 303.181 131.531C303.005 130.914 302.742 130.392 302.391 129.965C302.054 129.524 301.63 129.186 301.118 128.951C300.621 128.715 300.057 128.598 299.428 128.598C298.784 128.598 298.214 128.723 297.716 128.973C297.219 129.208 296.795 129.546 296.444 129.987C296.107 130.414 295.844 130.936 295.653 131.553C295.478 132.156 295.39 132.825 295.39 133.56ZM307 133.56C307 134.869 306.802 136.023 306.407 137.023C306.027 138.008 305.5 138.839 304.827 139.515C304.154 140.177 303.349 140.677 302.413 141.015C301.491 141.353 300.496 141.522 299.428 141.522C298.389 141.522 297.409 141.353 296.487 141.015C295.566 140.677 294.761 140.177 294.073 139.515C293.386 138.839 292.844 138.008 292.449 137.023C292.054 136.023 291.857 134.869 291.857 133.56C291.857 132.252 292.062 131.105 292.471 130.12C292.881 129.12 293.43 128.282 294.117 127.605C294.819 126.929 295.624 126.422 296.531 126.083C297.453 125.745 298.419 125.576 299.428 125.576C300.467 125.576 301.447 125.745 302.369 126.083C303.291 126.422 304.095 126.929 304.783 127.605C305.471 128.282 306.012 129.12 306.407 130.12C306.802 131.105 307 132.252 307 133.56Z" fill="white"/>
</svg>
