<svg width="62" height="62" viewBox="0 0 62 62" fill="none" xmlns="http://www.w3.org/2000/svg">
<path d="M38.4634 9.6416L32.9834 15.1217C32.158 15.9471 31.2852 17.0322 31 18.0834C30.7148 17.0322 30.2472 15.9471 29.4218 15.1217L23.9417 9.64164C21.4196 7.1195 17.3304 7.1195 14.8083 9.64164C12.5333 11.9166 12.4021 15.5585 14.2313 18.0833L31 18.0834L11.625 18.0834C8.05817 18.0834 5.16667 20.9749 5.16667 24.5417C5.16667 26.3019 5.87084 27.8976 7.01283 29.0625H30.9875L31 29.0625L31.0125 29.0625H54.9872C56.1292 27.8976 56.8333 26.3019 56.8333 24.5417C56.8333 20.9749 53.9418 18.0834 50.375 18.0834L47.5969 18.0834L48.2657 18.0833C50.0949 15.5585 49.8719 11.9166 47.5969 9.6416C45.0748 7.11947 40.9856 7.11947 38.4634 9.6416Z" fill="#232222"/>
<path d="M7.70104 33.1587L7.69304 32.8457H29.0625V56.7415H27.125C21.1066 56.7415 18.0974 56.7415 15.7237 55.7115C12.5587 54.3381 10.0442 51.7038 8.73324 48.3882C7.7501 45.9016 7.7501 42.7479 7.7501 36.444C7.7501 35.0622 7.7234 34.026 7.70104 33.1587Z" fill="#232222"/>
<path d="M46.2763 55.7115C43.9026 56.7415 40.8934 56.7415 34.875 56.7415H32.9375V32.8457H54.2354C54.25 33.7761 54.25 34.8921 54.25 36.4439C54.25 42.7489 54.25 45.9014 53.2668 48.3882C51.9558 51.7038 49.4413 54.3381 46.2763 55.7115Z" fill="#232222"/>
</svg>
