<svg width="91" height="91" viewBox="0 0 91 91" fill="none" xmlns="http://www.w3.org/2000/svg">
<circle cx="45.3059" cy="45.5467" r="45.3059" fill="#E6E6E6"/>
<path d="M58.1317 46.6464C58.7392 46.6464 59.2317 46.1539 59.2317 45.5464C59.2317 44.9388 58.7392 44.4464 58.1317 44.4464L58.1317 46.6464ZM32.479 44.4464C31.8715 44.4464 31.379 44.9388 31.379 45.5464C31.379 46.1539 31.8715 46.6464 32.479 46.6464L32.479 44.4464ZM38.1179 54.3441C38.5493 54.7718 39.2458 54.7686 39.6735 54.3372C40.1011 53.9057 40.098 53.2092 39.6665 52.7815L38.1179 54.3441ZM36.0656 50.7614L36.84 49.9801L36.0656 50.7614ZM36.0656 40.3314L36.84 41.1126L36.0656 40.3314ZM39.6665 38.3112C40.098 37.8835 40.1011 37.1871 39.6735 36.7556C39.2458 36.3241 38.5493 36.321 38.1179 36.7486L39.6665 38.3112ZM32.5109 46.0487L31.4197 46.1878L31.4197 46.1878L32.5109 46.0487ZM32.5109 45.044L31.4197 44.9049L31.4197 44.9049L32.5109 45.044ZM58.1317 44.4464L32.479 44.4464L32.479 46.6464L58.1317 46.6464L58.1317 44.4464ZM39.6665 52.7815L36.84 49.9801L35.2913 51.5427L38.1179 54.3441L39.6665 52.7815ZM36.84 41.1126L39.6665 38.3112L38.1179 36.7486L35.2913 39.5501L36.84 41.1126ZM36.84 49.9801C35.6945 48.8448 34.9027 48.0576 34.3657 47.389C33.8427 46.7378 33.6527 46.3066 33.6021 45.9096L31.4197 46.1878C31.5427 47.1524 32.003 47.9604 32.6504 48.7666C33.2839 49.5554 34.1826 50.4438 35.2913 51.5427L36.84 49.9801ZM35.2913 39.5501C34.1826 40.6489 33.2839 41.5373 32.6504 42.3261C32.003 43.1323 31.5427 43.9403 31.4197 44.9049L33.6021 45.1831C33.6527 44.7862 33.8427 44.3549 34.3657 43.7037C34.9027 43.0351 35.6945 42.2479 36.84 41.1126L35.2913 39.5501ZM33.6021 45.9096C33.5713 45.6684 33.5713 45.4243 33.6021 45.1831L31.4197 44.9049C31.3655 45.3308 31.3655 45.7619 31.4197 46.1878L33.6021 45.9096Z" fill="#373737"/>
</svg>
