<svg width="31" height="31" viewBox="0 0 31 31" fill="none" xmlns="http://www.w3.org/2000/svg">
<path d="M29.8982 26.5963L23.337 16.9286C23.1826 16.6984 22.9511 16.4682 22.7195 16.3147L22.1792 15.9311C21.5617 15.4707 21.5617 14.6267 22.1792 14.1664L22.6423 13.8595C22.8739 13.706 23.1054 13.4758 23.2598 13.2456L29.9753 3.73137C30.5157 2.88737 30.5929 1.81318 29.9753 1.0459C29.2034 0.0484357 27.814 -0.181746 26.8106 0.508805L17.0847 7.03067C16.8531 7.18413 16.6215 7.41431 16.4671 7.64449L16.0812 8.18159C15.6181 8.79542 14.769 8.79542 14.3058 8.18159L13.9971 7.72122C13.8427 7.49104 13.6111 7.26086 13.3796 7.1074L3.80802 0.432073C2.95893 -0.105022 1.87828 -0.18175 1.10638 0.432073C0.102914 1.19935 -0.128653 2.58046 0.566055 3.57792L7.12718 13.2456C7.28156 13.4758 7.51313 13.706 7.7447 13.8595L8.28503 14.2431C8.90254 14.7035 8.90254 15.5475 8.28503 16.0078L7.82188 16.3147C7.59031 16.4682 7.35876 16.6984 7.20438 16.9286L0.411678 26.5196C-0.20584 27.4403 -0.128648 28.6679 0.643249 29.4352C1.41515 30.2025 2.65017 30.3559 3.57645 29.7421L13.3024 23.2203C13.5339 23.0668 13.7655 22.8366 13.9199 22.6064L14.3058 22.0693C14.769 21.4555 15.6181 21.4555 16.0812 22.0693L16.3899 22.5297C16.5443 22.7599 16.7759 22.9901 17.0075 23.1435L26.7334 29.8956C27.6596 30.5094 28.8947 30.4327 29.6666 29.6654C30.4385 28.7447 30.5157 27.517 29.8982 26.5963Z" fill="#E3B748"/>
</svg>
