<svg width="22" height="22" viewBox="0 0 22 22" fill="none" xmlns="http://www.w3.org/2000/svg">
<path d="M2.13877 5.87535C1.83331 7.012 1.83331 8.58008 1.83331 11C1.83331 14.4373 1.83331 16.1559 2.70865 17.3607C2.99135 17.7498 3.33353 18.092 3.72263 18.3747C4.92743 19.25 6.64606 19.25 10.0833 19.25H11.9166C15.3539 19.25 17.0725 19.25 18.2773 18.3747C18.6664 18.092 19.0086 17.7498 19.2913 17.3607C20.1666 16.1559 20.1666 14.4373 20.1666 11C20.1666 8.57201 20.1666 7.00156 19.8581 5.864L17.9306 7.79154C16.4344 9.2878 15.2618 10.4604 14.2239 11.2523C13.1615 12.0628 12.1599 12.539 10.9999 12.539C9.83986 12.539 8.83818 12.0628 7.77583 11.2523C6.73792 10.4604 5.56535 9.28779 4.0691 7.79152L2.27685 5.99927L2.13877 5.87535Z" fill="white"/>
<path d="M2.74998 4.58333L2.84975 4.6659L3.22286 5.00074L5.00418 6.78206C6.5457 8.32358 7.65397 9.42978 8.60988 10.1591C9.54992 10.8763 10.2614 11.164 10.9999 11.164C11.7383 11.164 12.4498 10.8763 13.3898 10.1591C14.3457 9.42978 15.454 8.32358 16.9955 6.78206L19.1111 4.66648L19.2262 4.55197C18.9436 4.16287 18.6664 3.90804 18.2773 3.62534C17.0725 2.75 15.3539 2.75 11.9166 2.75H10.0833C6.64606 2.75 4.92743 2.75 3.72263 3.62534C3.33353 3.90804 3.03268 4.19423 2.74998 4.58333Z" fill="white"/>
</svg>
