<svg width="91" height="91" viewBox="0 0 91 91" fill="none" xmlns="http://www.w3.org/2000/svg">
<circle cx="45.6942" cy="45.3059" r="45.3059" transform="rotate(180 45.6942 45.3059)" fill="#E3B748"/>
<path d="M33.9514 44.2064C33.3438 44.2064 32.8514 44.6988 32.8514 45.3064C32.8514 45.9139 33.3438 46.4064 33.9514 46.4064L33.9514 44.2064ZM59.604 46.4064C60.2115 46.4064 60.704 45.9139 60.704 45.3064C60.704 44.6988 60.2115 44.2064 59.604 44.2064L59.604 46.4064ZM53.9652 36.5086C53.5337 36.081 52.8372 36.0841 52.4096 36.5156C51.9819 36.9471 51.985 37.6435 52.4165 38.0712L53.9652 36.5086ZM56.0174 40.0913L55.2431 40.8726L56.0174 40.0913ZM56.0174 50.5214L55.2431 49.7401L56.0174 50.5214ZM52.4165 52.5415C51.985 52.9692 51.9819 53.6657 52.4096 54.0972C52.8372 54.5286 53.5337 54.5317 53.9652 54.1041L52.4165 52.5415ZM59.5721 44.804L60.6633 44.6649L60.6633 44.6649L59.5721 44.804ZM59.5721 45.8087L60.6633 45.9478L60.6633 45.9478L59.5721 45.8087ZM33.9514 46.4064L59.604 46.4064L59.604 44.2064L33.9514 44.2064L33.9514 46.4064ZM52.4165 38.0712L55.2431 40.8726L56.7917 39.3101L53.9652 36.5086L52.4165 38.0712ZM55.2431 49.7401L52.4165 52.5415L53.9652 54.1041L56.7917 51.3026L55.2431 49.7401ZM55.2431 40.8726C56.3885 42.0079 57.1804 42.7951 57.7173 43.4637C58.2403 44.1149 58.4304 44.5462 58.4809 44.9431L60.6633 44.6649C60.5403 43.7003 60.0801 42.8923 59.4326 42.0861C58.7991 41.2973 57.9004 40.4089 56.7917 39.3101L55.2431 40.8726ZM56.7917 51.3026C57.9004 50.2038 58.7991 49.3154 59.4326 48.5266C60.0801 47.7204 60.5403 46.9124 60.6633 45.9478L58.4809 45.6696C58.4304 46.0666 58.2403 46.4978 57.7173 47.149C57.1804 47.8176 56.3885 48.6048 55.2431 49.7401L56.7917 51.3026ZM58.4809 44.9431C58.5117 45.1843 58.5117 45.4284 58.4809 45.6696L60.6633 45.9478C60.7176 45.5219 60.7176 45.0908 60.6633 44.6649L58.4809 44.9431Z" fill="black"/>
</svg>
