<svg width="187" height="31" viewBox="0 0 187 31" fill="none" xmlns="http://www.w3.org/2000/svg">
<path fill-rule="evenodd" clip-rule="evenodd" d="M8.81552 0.0902667C10.4154 0.0172672 10.9262 0 15 0C19.0738 0 19.5846 0.0172672 21.1845 0.0902667C22.7811 0.163087 23.8715 0.416679 24.8256 0.78751C25.812 1.17079 26.6485 1.68369 27.4824 2.51758C28.3163 3.35153 28.8292 4.18805 29.2125 5.17443C29.5833 6.12854 29.8369 7.21894 29.9097 8.81552C29.9827 10.4154 30 10.9262 30 15C30 19.0738 29.9827 19.5846 29.9097 21.1845C29.8369 22.7811 29.5833 23.8715 29.2125 24.8256C28.8292 25.812 28.3163 26.6485 27.4824 27.4824C26.6485 28.3163 25.812 28.8292 24.8256 29.2125C23.8715 29.5833 22.7811 29.8369 21.1845 29.9097C19.5846 29.9827 19.0738 30 15 30C10.9262 30 10.4154 29.9827 8.81552 29.9097C7.21894 29.8369 6.12854 29.5833 5.17443 29.2125C4.18805 28.8292 3.35153 28.3163 2.51758 27.4824C1.68369 26.6485 1.17079 25.812 0.78751 24.8256C0.416679 23.8715 0.163087 22.7811 0.0902667 21.1845C0.0172672 19.5846 0 19.0738 0 15C0 10.9262 0.0172672 10.4154 0.0902667 8.81552C0.163087 7.21894 0.416679 6.12854 0.78751 5.17443C1.17079 4.18805 1.68369 3.35153 2.51758 2.51758C3.35153 1.68369 4.18805 1.17079 5.17443 0.78751C6.12854 0.416679 7.21894 0.163087 8.81552 0.0902667ZM23.8466 3.30664C23.318 3.10122 22.5238 2.85685 21.0613 2.79017C19.4796 2.718 19.0052 2.7027 15 2.7027C10.9948 2.7027 10.5204 2.718 8.93871 2.79017C7.47623 2.85685 6.68199 3.10122 6.15343 3.30664C5.45327 3.57875 4.95359 3.90379 4.42872 4.42872C3.90379 4.95359 3.57875 5.45327 3.30664 6.15343C3.10122 6.68199 2.85685 7.47623 2.79017 8.93871C2.718 10.5204 2.7027 10.9948 2.7027 15C2.7027 19.0052 2.718 19.4796 2.79017 21.0613C2.85685 22.5238 3.10122 23.318 3.30664 23.8466C3.57875 24.5467 3.90385 25.0464 4.42872 25.5713C4.95359 26.0962 5.45327 26.4213 6.15343 26.6934C6.68199 26.8988 7.47623 27.1431 8.93871 27.2098C10.5202 27.282 10.9945 27.2973 15 27.2973C19.0055 27.2973 19.4798 27.282 21.0613 27.2098C22.5238 27.1431 23.318 26.8988 23.8466 26.6934C24.5467 26.4213 25.0464 26.0962 25.5713 25.5713C26.0962 25.0464 26.4213 24.5467 26.6934 23.8466C26.8988 23.318 27.1431 22.5238 27.2098 21.0613C27.282 19.4796 27.2973 19.0052 27.2973 15C27.2973 10.9948 27.282 10.5204 27.2098 8.93871C27.1431 7.47623 26.8988 6.68199 26.6934 6.15343C26.4213 5.45327 26.0962 4.95359 25.5713 4.42872C25.0464 3.90379 24.5467 3.57875 23.8466 3.30664ZM15 7.2973C10.7459 7.2973 7.2973 10.7459 7.2973 15C7.2973 19.2541 10.7459 22.7027 15 22.7027C19.2541 22.7027 22.7027 19.2541 22.7027 15C22.7027 10.7459 19.2541 7.2973 15 7.2973ZM10 15C10 17.7614 12.2386 20 15 20C17.7614 20 20 17.7614 20 15C20 12.2386 17.7614 10 15 10C12.2386 10 10 12.2386 10 15ZM23.007 8.79295C24.0011 8.79295 24.8071 7.9871 24.8071 6.99298C24.8071 5.99886 24.0011 5.19295 23.007 5.19295C22.013 5.19295 21.207 5.99886 21.207 6.99298C21.207 7.9871 22.013 8.79295 23.007 8.79295Z" fill="#FDD65B"/>
<path fill-rule="evenodd" clip-rule="evenodd" d="M81.3448 0H54.6552C53.741 0 53 0.741046 53 1.65517V28.3448C53 29.259 53.741 30 54.6552 30H69.0345V18.3983H65.1293V13.8569H69.0345V10.5155C69.0345 6.64138 71.4034 4.53103 74.8586 4.53103C76.023 4.5285 77.1866 4.5872 78.3448 4.7069V8.7569H75.9655C74.0828 8.7569 73.7155 9.64655 73.7155 10.9603V13.8517H78.2155L77.631 18.3931H73.6897V30H81.3448C82.259 30 83 29.259 83 28.3448V1.65517C83 0.741046 82.259 0 81.3448 0Z" fill="#FDD65B"/>
<path fill-rule="evenodd" clip-rule="evenodd" d="M108.75 30H131.25C133.32 30 135 28.32 135 26.25V3.75C135 1.68 133.32 0 131.25 0H108.75C106.68 0 105 1.68 105 3.75V26.25C105 28.32 106.68 30 108.75 30ZM127.462 11.6775C127.462 16.755 123.592 22.62 116.52 22.62C114.352 22.62 112.327 21.9825 110.632 20.9025C110.932 20.94 111.24 20.955 111.547 20.955C113.347 20.955 115.005 20.34 116.325 19.305C114.645 19.275 113.22 18.165 112.732 16.635C112.965 16.68 113.205 16.7025 113.452 16.7025C113.805 16.7025 114.142 16.6575 114.465 16.5675C112.71 16.215 111.382 14.655 111.382 12.795V12.7425C111.9 13.0275 112.492 13.2 113.122 13.2225C112.095 12.5325 111.412 11.355 111.412 10.02C111.412 9.315 111.6 8.655 111.93 8.085C113.827 10.41 116.663 11.9475 119.858 12.105C119.797 11.82 119.76 11.5275 119.76 11.2275C119.76 9.105 121.485 7.38 123.608 7.38C124.71 7.38 125.708 7.845 126.413 8.595C127.29 8.4225 128.115 8.1075 128.858 7.665C128.565 8.565 127.958 9.3225 127.162 9.795C127.943 9.6975 128.685 9.495 129.375 9.1875C128.858 9.96 128.205 10.6425 127.455 11.1825C127.462 11.3475 127.462 11.5125 127.462 11.6775Z" fill="#FDD65B"/>
<path fill-rule="evenodd" clip-rule="evenodd" d="M172 0C163.716 0 157 6.71615 157 15.0009C157 21.3559 160.954 26.7887 166.534 28.9745C166.403 27.7876 166.284 25.9623 166.586 24.6666C166.858 23.496 168.345 17.2102 168.345 17.2102C168.345 17.2102 167.896 16.3116 167.896 14.983C167.896 12.8972 169.105 11.3399 170.61 11.3399C171.89 11.3399 172.508 12.3009 172.508 13.4531C172.508 14.7401 171.688 16.6643 171.266 18.4476C170.912 19.9408 172.014 21.1584 173.487 21.1584C176.153 21.1584 178.202 18.3471 178.202 14.289C178.202 10.6974 175.622 8.18609 171.937 8.18609C167.669 8.18609 165.163 11.3875 165.163 14.6962C165.163 15.9853 165.66 17.368 166.28 18.1194C166.402 18.2679 166.42 18.3982 166.384 18.5497C166.27 19.0236 166.017 20.0425 165.967 20.2509C165.902 20.5255 165.75 20.5836 165.466 20.4516C163.592 19.5794 162.421 16.8403 162.421 14.6401C162.421 9.9081 165.859 5.56249 172.332 5.56249C177.535 5.56249 181.579 9.27052 181.579 14.2262C181.579 19.3962 178.32 23.5568 173.795 23.5568C172.276 23.5568 170.847 22.7671 170.357 21.8343C170.357 21.8343 169.605 24.6984 169.423 25.4002C169.084 26.7033 168.17 28.3365 167.559 29.3328C168.962 29.7673 170.454 30.0018 172 30.0018C180.284 30.0018 187 23.2857 187 15.0009C187 6.71615 180.284 0 172 0Z" fill="#FDD65B"/>
</svg>
